<svg id="Layer_1" data-name="Layer 1" xmlns="http://www.w3.org/2000/svg" viewBox="0 0 24 24"><defs><style>.cls-1{fill:none;stroke:#4285f4;stroke-linecap:round;stroke-linejoin:round;stroke-width:2px;}</style></defs><path class="cls-1" d="M20.32,15.66V8.26a1.82,1.82,0,0,0-.93-1.59L12.92,3a1.83,1.83,0,0,0-1.84,0L4.61,6.67a1.82,1.82,0,0,0-.93,1.59v7.4a1.84,1.84,0,0,0,.93,1.6L11.08,21a1.83,1.83,0,0,0,1.84,0l6.47-3.7A1.84,1.84,0,0,0,20.32,15.66Z"/><polyline class="cls-1" points="3.93 7.3 12 11.97 20.07 7.3"/><line class="cls-1" x1="12" y1="21.28" x2="12" y2="11.96"/></svg>