<?xml version="1.0" encoding="utf-8"?>
<!-- Generator: Adobe Illustrator 24.3.0, SVG Export Plug-In . SVG Version: 6.00 Build 0)  -->
<svg version="1.1" id="Layer_1" xmlns="http://www.w3.org/2000/svg" xmlns:xlink="http://www.w3.org/1999/xlink" x="0px" y="0px"
	 viewBox="0 0 662 518" style="enable-background:new 0 0 662 518;" xml:space="preserve">
<style type="text/css">
	.st0{clip-path:url(#SVGID_2_);}
	.st1{fill:#F1F1F4;}
	.st2{fill:#F1F5F9;}
	.st3{fill:url(#SVGID_3_);}
	.st4{fill:url(#SVGID_4_);}
	.st5{fill:#E5E2FF;}
	.st6{fill:url(#SVGID_5_);}
	.st7{opacity:0.62;fill:url(#SVGID_6_);enable-background:new    ;}
	.st8{opacity:0.62;fill:url(#SVGID_7_);enable-background:new    ;}
	.st9{opacity:0.5;fill:url(#SVGID_8_);enable-background:new    ;}
	.st10{fill:#FFFFFF;}
	.st11{fill:url(#SVGID_9_);}
	.st12{opacity:0.5;fill:url(#SVGID_10_);enable-background:new    ;}
	.st13{fill:url(#SVGID_11_);}
	.st14{fill:url(#SVGID_12_);}
	.st15{opacity:0.76;fill:url(#SVGID_13_);enable-background:new    ;}
	.st16{opacity:0.76;fill:url(#SVGID_14_);enable-background:new    ;}
	.st17{opacity:0.76;fill:url(#SVGID_15_);enable-background:new    ;}
	.st18{fill:#FE9083;}
	.st19{fill:url(#SVGID_16_);}
	.st20{opacity:0.5;fill:url(#SVGID_17_);enable-background:new    ;}
	.st21{fill:url(#SVGID_18_);}
	.st22{opacity:0.5;fill:url(#SVGID_19_);enable-background:new    ;}
	.st23{fill:url(#SVGID_20_);}
	.st24{fill:url(#SVGID_21_);}
	.st25{fill:#CB4D7A;}
	.st26{fill:#EE8183;}
	.st27{fill:url(#SVGID_22_);}
	.st28{opacity:0.6;fill:url(#SVGID_23_);enable-background:new    ;}
	.st29{fill:url(#SVGID_24_);}
	.st30{fill:#E28183;}
	.st31{opacity:0.91;fill:url(#SVGID_25_);enable-background:new    ;}
	.st32{fill:url(#SVGID_26_);}
	.st33{opacity:0.6;fill:url(#SVGID_27_);enable-background:new    ;}
	.st34{fill:url(#SVGID_28_);}
	.st35{fill:url(#SVGID_29_);}
	.st36{opacity:0.91;fill:url(#SVGID_30_);enable-background:new    ;}
	.st37{opacity:0.5;fill:url(#SVGID_31_);enable-background:new    ;}
	.st38{opacity:0.5;fill:url(#SVGID_32_);enable-background:new    ;}
	.st39{opacity:0.5;fill:url(#SVGID_33_);enable-background:new    ;}
	.st40{opacity:0.5;fill:url(#SVGID_34_);enable-background:new    ;}
	.st41{opacity:0.5;fill:url(#SVGID_35_);enable-background:new    ;}
	.st42{opacity:0.5;fill:url(#SVGID_36_);enable-background:new    ;}
	.st43{opacity:0.5;fill:url(#SVGID_37_);enable-background:new    ;}
	.st44{opacity:0.5;fill:url(#SVGID_38_);enable-background:new    ;}
	.st45{opacity:0.5;fill:url(#SVGID_39_);enable-background:new    ;}
	.st46{opacity:0.76;fill:url(#SVGID_40_);enable-background:new    ;}
	.st47{opacity:0.5;fill:url(#SVGID_41_);enable-background:new    ;}
	.st48{opacity:0.3;fill:url(#SVGID_42_);enable-background:new    ;}
	.st49{opacity:0.5;fill:url(#SVGID_43_);enable-background:new    ;}
	.st50{opacity:0.5;fill:url(#SVGID_44_);enable-background:new    ;}
	.st51{opacity:0.5;fill:url(#SVGID_45_);enable-background:new    ;}
	.st52{opacity:0.5;fill:url(#SVGID_46_);enable-background:new    ;}
	.st53{opacity:0.5;fill:url(#SVGID_47_);enable-background:new    ;}
	.st54{opacity:0.3;fill:url(#SVGID_48_);enable-background:new    ;}
	.st55{opacity:0.5;fill:url(#SVGID_49_);enable-background:new    ;}
	.st56{opacity:0.5;fill:url(#SVGID_50_);enable-background:new    ;}
	.st57{opacity:0.5;fill:url(#SVGID_51_);enable-background:new    ;}
	.st58{opacity:0.5;fill:#7A4AC0;enable-background:new    ;}
	.st59{fill:url(#SVGID_52_);}
	.st60{fill:url(#SVGID_53_);}
	.st61{fill:url(#SVGID_54_);}
	.st62{opacity:0.6;fill:url(#SVGID_55_);enable-background:new    ;}
	.st63{fill:#38368E;}
	.st64{fill:url(#SVGID_56_);}
	.st65{fill:url(#SVGID_57_);}
	.st66{fill:#FFEBED;}
	.st67{fill:#7F9EC9;}
	.st68{fill:#131163;}
	.st69{fill:#C6659C;}
	.st70{fill:#CB5F7D;}
	.st71{fill:#9F4A8B;}
	.st72{fill:#FFBCAF;}
	.st73{opacity:0.6;fill:url(#SVGID_58_);enable-background:new    ;}
	.st74{fill:url(#SVGID_59_);}
	.st75{fill:#D2726C;}
	.st76{opacity:0.6;fill:url(#SVGID_60_);enable-background:new    ;}
	.st77{opacity:0.6;fill:url(#SVGID_61_);enable-background:new    ;}
	.st78{opacity:0.5;fill:url(#SVGID_62_);enable-background:new    ;}
	.st79{fill:url(#SVGID_63_);}
	.st80{fill:url(#SVGID_64_);}
	.st81{fill:url(#SVGID_65_);}
	.st82{opacity:0.8;fill:url(#SVGID_66_);enable-background:new    ;}
	.st83{opacity:0.8;fill:url(#SVGID_67_);enable-background:new    ;}
	.st84{fill:#34C7FF;}
	.st85{fill:url(#SVGID_68_);}
	.st86{fill:url(#SVGID_69_);}
	.st87{fill:url(#SVGID_70_);}
	.st88{opacity:0.6;fill:#36D1F7;enable-background:new    ;}
	.st89{fill:#744CA2;}
	.st90{opacity:0.6;fill:url(#SVGID_71_);enable-background:new    ;}
	.st91{opacity:0.3;fill:url(#SVGID_72_);enable-background:new    ;}
	.st92{opacity:0.3;fill:url(#SVGID_73_);enable-background:new    ;}
	.st93{opacity:0.3;fill:url(#SVGID_74_);enable-background:new    ;}
	.st94{opacity:0.3;fill:url(#SVGID_75_);enable-background:new    ;}
	.st95{fill:#D1D4FB;}
	.st96{fill:#E0FFFF;}
	.st97{fill:url(#SVGID_76_);}
	.st98{fill:url(#SVGID_77_);}
	.st99{opacity:0.81;fill:url(#SVGID_78_);enable-background:new    ;}
	.st100{fill:#473DA2;}
	.st101{fill:url(#SVGID_79_);}
	.st102{fill:url(#SVGID_80_);}
	.st103{fill:url(#SVGID_81_);}
	.st104{fill:url(#SVGID_82_);}
	.st105{fill:url(#SVGID_83_);}
	.st106{fill:url(#SVGID_84_);}
	.st107{display:none;opacity:0.73;fill:url(#SVGID_85_);enable-background:new    ;}
	.st108{display:none;fill:#953DA2;}
	.st109{display:none;fill:#FFFFFF;}
	.st110{display:none;opacity:0.73;fill:url(#SVGID_86_);enable-background:new    ;}
	.st111{display:none;fill:#D1D4FB;}
	.st112{fill-rule:evenodd;clip-rule:evenodd;fill:url(#SVGID_87_);}
	.st113{fill-rule:evenodd;clip-rule:evenodd;fill:url(#SVGID_88_);}
	.st114{fill-rule:evenodd;clip-rule:evenodd;fill:url(#SVGID_89_);}
	.st115{opacity:0.5;fill-rule:evenodd;clip-rule:evenodd;fill:#601734;enable-background:new    ;}
	.st116{fill-rule:evenodd;clip-rule:evenodd;fill:#B3D9FF;}
	.st117{fill:#FF1D9C;}
	.st118{fill:#6877FF;}
	.st119{fill:#4F31E0;}
	.st120{display:none;fill-rule:evenodd;clip-rule:evenodd;fill:url(#SVGID_90_);}
	.st121{display:none;fill-rule:evenodd;clip-rule:evenodd;fill:url(#SVGID_91_);}
	.st122{display:none;fill-rule:evenodd;clip-rule:evenodd;fill:url(#SVGID_92_);}
	.st123{display:none;fill-rule:evenodd;clip-rule:evenodd;fill:url(#SVGID_93_);}
</style>
<g>
	<defs>
		<rect id="SVGID_1_" width="662" height="518"/>
	</defs>
	<clipPath id="SVGID_2_">
		<use xlink:href="#SVGID_1_"  style="overflow:visible;"/>
	</clipPath>
	<g class="st0">
		<path class="st1" d="M118.4,227c0-0.4,0.2-0.5,0.5-0.5l9.6,0.3c0.9,0,1.8,0.2,2.4,0.4c0.7,0.3,1.2,0.6,1.6,1.1
			c0.4,0.5,0.7,1,0.8,1.6c0.2,0.6,0.2,1.3,0.2,2.1l-0.1,2.6c0,0.8-0.1,1.5-0.3,2.1c-0.2,0.6-0.5,1.1-0.9,1.6c-0.4,0.4-1,0.7-1.6,1
			c-0.7,0.2-1.5,0.3-2.4,0.3l-5.2-0.2l-1.1-3h-0.1l-0.1,3l-3.6-0.1L118.4,227z M121.7,236.1l6.1,0.2c0.7,0,1.2-0.1,1.5-0.4
			c0.3-0.3,0.5-0.8,0.5-1.6l0.1-2.1c0-0.8-0.1-1.3-0.4-1.6c-0.3-0.3-0.8-0.5-1.5-0.5l-5.9-0.2c-0.1,0-0.1,0-0.2,0.1
			c0,0.1-0.1,0.1-0.1,0.2L121.7,236.1z"/>
		<path class="st1" d="M138.7,232.5h-0.1l-0.1,3.8c0,0.2,0.1,0.2,0.2,0.3l10.8,0.3l-0.1,3.3l-14.1-0.4c-0.3,0-0.5-0.2-0.5-0.5
			l0.4-11.7c0-0.4,0.2-0.5,0.5-0.5l13.7,0.4c0.4,0,0.5,0.2,0.5,0.5l-0.1,3.3l-3.4,1.1h-0.1l0.1-1.7c0-0.1-0.1-0.2-0.2-0.2l-7.2-0.2
			c-0.1,0-0.2,0-0.2,0.1c0,0.1,0,0.1,0,0.2l0,1.6l6,0.2l-0.1,2.6l-5-0.2L138.7,232.5z"/>
		<path class="st1" d="M162.6,232.3h-0.1l0-1.4c0-0.1-0.1-0.2-0.2-0.2l-6.7-0.2c-0.2,0-0.4,0-0.5,0.1s-0.1,0.3-0.2,0.5l0,0.3
			c0,0.2,0,0.4,0.1,0.5c0.1,0.1,0.2,0.1,0.5,0.2l7.9,1.3c0.5,0.1,0.9,0.2,1.3,0.4c0.3,0.2,0.6,0.4,0.8,0.6c0.2,0.2,0.4,0.5,0.4,0.9
			c0.1,0.4,0.1,0.8,0.1,1.3l0,1c0,0.5-0.1,1-0.2,1.4c-0.1,0.4-0.4,0.7-0.7,1c-0.3,0.3-0.7,0.5-1.2,0.6c-0.5,0.1-1.1,0.2-1.8,0.2
			l-11.4-0.3l0.1-3.3l10.2,0.3c0.3,0,0.5,0,0.6-0.1c0.1-0.1,0.2-0.3,0.2-0.6l0-0.4c0-0.2,0-0.4-0.1-0.5c-0.1-0.1-0.2-0.2-0.4-0.2
			l-7.6-1.2c-0.5-0.1-1-0.2-1.3-0.4c-0.4-0.2-0.7-0.3-0.9-0.6c-0.2-0.2-0.4-0.5-0.5-0.9c-0.1-0.3-0.1-0.7-0.1-1.2l0-0.9
			c0-0.9,0.3-1.6,0.8-2.1c0.5-0.5,1.3-0.7,2.5-0.7l11.4,0.3c0.4,0,0.5,0.2,0.5,0.6l-0.1,2.6L162.6,232.3z"/>
		<path class="st1" d="M167.4,240.8l0.4-12.8l3.6,0.1l-0.4,12.8L167.4,240.8z"/>
		<path class="st1" d="M184.5,235.8c0-0.2,0-0.4,0-0.6c0-0.2,0-0.4,0-0.5v-0.2l3.6,0.1l-0.2,6.3c0,0.3-0.2,0.5-0.5,0.5l-9.6-0.3
			c-0.9,0-1.8-0.2-2.4-0.4c-0.7-0.3-1.2-0.6-1.6-1.1c-0.4-0.5-0.7-1-0.8-1.6c-0.2-0.6-0.2-1.3-0.2-2.1l0.1-2.6
			c0-0.8,0.1-1.5,0.3-2.1c0.2-0.6,0.5-1.1,0.9-1.6c0.4-0.4,1-0.7,1.6-1c0.7-0.2,1.5-0.3,2.4-0.3l9.6,0.3c0.3,0,0.5,0.2,0.5,0.5
			l-0.1,2.8l-3.4,1.1h-0.1l0-1.2c0-0.1,0-0.2-0.2-0.2l-6.1-0.2c-0.4,0-0.6,0-0.9,0.1c-0.2,0.1-0.4,0.2-0.6,0.3
			c-0.2,0.2-0.3,0.4-0.4,0.6c-0.1,0.3-0.1,0.6-0.1,1l-0.1,2.2c0,0.8,0.1,1.3,0.4,1.6c0.3,0.3,0.8,0.5,1.5,0.5l6.1,0.2
			c0.1,0,0.2-0.1,0.2-0.2L184.5,235.8z"/>
		<path class="st1" d="M195.6,228.9c0.3,0,0.5,0.1,0.6,0.1c0.1,0.1,0.2,0.2,0.3,0.4l4.6,9.3c0.1,0.1,0.2,0.2,0.3,0.2h0.2
			c0.2,0,0.3-0.1,0.3-0.3l0.3-9.6l3.3,0.1l-0.4,12.3c0,0.3-0.2,0.5-0.5,0.5l-5.2-0.2c-0.2,0-0.4,0-0.5-0.1c-0.1-0.1-0.2-0.2-0.3-0.4
			l-4.7-9.3c-0.1-0.1-0.2-0.2-0.3-0.2h-0.2c-0.2,0-0.3,0.1-0.3,0.3l-0.3,9.6l-3.3-0.1l0.4-12.2c0-0.4,0.2-0.5,0.5-0.5L195.6,228.9z"
			/>
		<path class="st2" d="M447.4,382.6c86.4-86.4,86.4-226.4,0-312.8c-86.4-86.4-226.6-86.4-313,0c-86.4,86.4-86.4,226.4,0,312.8
			C220.8,469,360.9,469,447.4,382.6z"/>
		
			<linearGradient id="SVGID_3_" gradientUnits="userSpaceOnUse" x1="146.7672" y1="222.7738" x2="103.7927" y2="314.8161" gradientTransform="matrix(1 0 0 -1 0 518)">
			<stop  offset="0" style="stop-color:#DBCCFF"/>
			<stop  offset="1" style="stop-color:#D1BBFF"/>
		</linearGradient>
		<path class="st3" d="M128.2,212.1c-5.4-9.4-15.1-13.2-15.1-13.2l-3.4,1.6l7.6,13.7c-1,5.3-4.6,8.2-4.6,8.2l0,0
			c0,0-4.5,0.9-9.2-1.7L97.8,206l-3.4,1.6c0,0-3.2,9.8,0.5,20c0,0,1.4,3.3,1.7,3.6c1.3,1.6,4.8,3.3,11.5,2.9l23.1,44.1
			c-1.9,3.3-2.3,7.5-0.5,11.2c2.8,6,10,8.7,16.1,5.8c6.1-2.8,8.7-10,5.8-16.1c-1.7-3.7-5.1-6.1-8.9-6.8l-19-46
			c4.5-4.8,5.5-8.5,5.1-10.7C129.8,215.2,128.2,212.1,128.2,212.1z M147.2,288.1l-6.1,2.9l-5.5-3.9l0.6-6.7l6.1-2.9l5.5,3.9
			L147.2,288.1z"/>
		
			<linearGradient id="SVGID_4_" gradientUnits="userSpaceOnUse" x1="148.4394" y1="219.2004" x2="105.4696" y2="311.2326" gradientTransform="matrix(1 0 0 -1 0 518)">
			<stop  offset="0" style="stop-color:#B5A6E7"/>
			<stop  offset="1" style="stop-color:#7760BF"/>
		</linearGradient>
		<path class="st4" d="M129.9,215.7c-5.4-9.4-15.1-13.2-15.1-13.2l-3.4,1.6l7.6,13.7c-1,5.3-4.6,8.2-4.6,8.2l0,0
			c0,0-4.5,0.9-9.2-1.7l-5.7-14.6l-3.4,1.6c0,0-3.2,9.8,0.5,20c0,0,5.2,7,13.2,6.5l23.1,44.1c-1.9,3.3-2.3,7.5-0.5,11.2
			c2.8,6,10,8.7,16.1,5.8c6.1-2.8,8.7-10,5.8-16.1c-1.7-3.7-5.1-6.1-8.9-6.8l-19-46C131.9,224.2,129.9,215.7,129.9,215.7z
			 M148.9,291.7l-6.1,2.9l-5.5-3.9l0.6-6.7l6.1-2.9l5.5,3.9L148.9,291.7z"/>
		<path class="st5" d="M97.8,206l-3.3,1.6l1.7,3.6l3.4-1.6L97.8,206z"/>
		<path class="st5" d="M113.1,198.9l-3.3,1.6l1.7,3.6l3.3-1.6L113.1,198.9z"/>
		<path class="st5" d="M147.2,288.1l-6.1,2.9l1.7,3.6l6.1-2.9L147.2,288.1z"/>
		
			<linearGradient id="SVGID_5_" gradientUnits="userSpaceOnUse" x1="137.7791" y1="242.0647" x2="119.6642" y2="280.8626" gradientTransform="matrix(1 0 0 -1 0 518)">
			<stop  offset="0" style="stop-color:#B5A6E7"/>
			<stop  offset="1" style="stop-color:#7760BF"/>
		</linearGradient>
		<path class="st6" d="M114.7,241l18.7,35.9c4.9,0.2,7.5-3.5,7.5-3.5l-15.2-37.5C118.9,235.6,114.7,241,114.7,241z M139.5,273.6
			c-0.5,0.5-1.4,1.1-2.4,1.6c-0.8,0.4-1.7,0.6-2.6,0.8l-18.7-35.2c0.9-0.8,2.5-2,4.5-3c1.5-0.7,3.1-1.2,4.6-1.4L139.5,273.6z"/>
		<path class="st5" d="M139.5,273.6l1.4-0.3c0,0-2.1,3.8-7.5,3.5l1.1-0.9C134.5,276,137.2,275.7,139.5,273.6z"/>
		
			<linearGradient id="SVGID_6_" gradientUnits="userSpaceOnUse" x1="114.5145" y1="277.5132" x2="125.5176" y2="282.6575" gradientTransform="matrix(1 0 0 -1 0 518)">
			<stop  offset="0" style="stop-color:#8B8BE0"/>
			<stop  offset="1" style="stop-color:#A177B7"/>
		</linearGradient>
		<path class="st7" d="M114.7,241l1.1-0.1c0,0,3.2-3.3,9.1-4.3l0.8-0.7c0,0-2.4-0.4-6.1,1.3C115.9,238.9,114.7,241,114.7,241z"/>
		
			<linearGradient id="SVGID_7_" gradientUnits="userSpaceOnUse" x1="121.2167" y1="277.5328" x2="118.1037" y2="284.1988" gradientTransform="matrix(1 0 0 -1 0 518)">
			<stop  offset="0" style="stop-color:#FFFFFF"/>
			<stop  offset="1" style="stop-color:#A177B7"/>
		</linearGradient>
		<path class="st8" d="M109.8,237.7c0,0,9-1.6,16.6-7.7l2.4,5.9c0,0-2.8-2.7-8.8-0.3c-7.1,2.9-6.7,8.6-6.7,8.6L109.8,237.7z"/>
		
			<linearGradient id="SVGID_8_" gradientUnits="userSpaceOnUse" x1="145.466" y1="240.8172" x2="125.4933" y2="283.5941" gradientTransform="matrix(1 0 0 -1 0 518)">
			<stop  offset="0" style="stop-color:#000000"/>
			<stop  offset="1" style="stop-color:#FFFFFF"/>
		</linearGradient>
		<path class="st9" d="M128.9,235.8c-1.7-1.2-3.7-1.3-3.7-1.3l18.1,43.7l2.2-2.3L128.9,235.8z"/>
		<path class="st10" d="M128.9,235.8c0,0-1.9,5.8,3.6,8.6L128.9,235.8z"/>
		
			<linearGradient id="SVGID_9_" gradientUnits="userSpaceOnUse" x1="306.9565" y1="5.700684e-02" x2="306.9565" y2="127.332" gradientTransform="matrix(1 0 0 -1 0 518)">
			<stop  offset="0" style="stop-color:#6456C0"/>
			<stop  offset="1" style="stop-color:#5F2C95"/>
		</linearGradient>
		<path class="st11" d="M401.1,517.9H334c-7-39-23.4-89.7-23.4-89.7c-4-2.4-11.7,0.5-11.7,0.5l-24.5,89.2h-61.3
			c-3.3-55,26.9-117.5,26.9-117.5l0,0c-0.1-0.2-1.1-2.1-0.8-3.4c0.1-0.6,1.1-1.6,2.3-2.7c1.7-1.5,3.6-3,3.6-3l114.4-0.7
			c0,0,1.2,0.6,2.6,1.5h0c2.5,1.5,5.9,3.9,5.9,5.6c0,2.4-0.9,3.9-1.2,4.2l-0.1,0.1C391.2,448.2,401.1,517.9,401.1,517.9z"/>
		
			<radialGradient id="SVGID_10_" cx="274.428" cy="291.039" r="1" gradientTransform="matrix(19.7125 4.5453 11.7365 -50.9004 -8573.0801 14006.6309)" gradientUnits="userSpaceOnUse">
			<stop  offset="0" style="stop-color:#4B474B"/>
			<stop  offset="1" style="stop-color:#000000"/>
		</radialGradient>
		<path class="st12" d="M220,466.4c8.2-35.6,26-61.8,39.8-58.6c13.8,3.2,18.3,34.6,10.1,70.1"/>
		
			<linearGradient id="SVGID_11_" gradientUnits="userSpaceOnUse" x1="265.728" y1="44.7335" x2="299.134" y2="44.7335" gradientTransform="matrix(1 0 0 -1 0 518)">
			<stop  offset="0" style="stop-color:#9E8CEF"/>
			<stop  offset="1" style="stop-color:#CAAFEE"/>
		</linearGradient>
		<path class="st13" d="M266.4,518l-0.7-0.1c7.8-45.9,27.6-84.5,27.8-84.8l0.1-0.1l5-4.4l0.5,0.5l-5,4.4
			C293.3,435.2,274.1,473,266.4,518z"/>
		
			<linearGradient id="SVGID_12_" gradientUnits="userSpaceOnUse" x1="343.777" y1="44.741" x2="310.37" y2="44.741" gradientTransform="matrix(1 0 0 -1 0 518)">
			<stop  offset="0" style="stop-color:#9E8CEF"/>
			<stop  offset="1" style="stop-color:#CAAFEE"/>
		</linearGradient>
		<path class="st14" d="M343.1,518c-7.7-45-27.4-83.2-28.2-84.9l-4.5-4l0.5-0.5l4.6,4.2c0.2,0.4,20.5,39.3,28.3,85.2L343.1,518z"/>
		
			<linearGradient id="SVGID_13_" gradientUnits="userSpaceOnUse" x1="302.4615" y1="5.700684e-02" x2="302.4615" y2="127.332" gradientTransform="matrix(1 0 0 -1 0 518)">
			<stop  offset="0" style="stop-color:#CCCCFF"/>
			<stop  offset="1" style="stop-color:#755CBB"/>
		</linearGradient>
		<path class="st15" d="M367.9,397.7c0,2.4-0.9,3.9-1.2,4.2l-0.1,0.1c-23.8,5.4-41.9,27.6-41.9,27.6c13,24.9,34.6,88.4,34.6,88.4
			H334c-7-39-23.4-89.7-23.4-89.7c-4-2.4-11.7,0.5-11.7,0.5l-24.5,89.2h-15.9c5.7-37.4,22.5-82.9,22.5-82.9
			c-16.5-19.2-41-34.5-41-34.5l0,0l-2.9-1.8l2.1-1.6c10.6,10.2,44.8,23.5,45.9,23.9l-43.6-26.5c1.7-1.5,3.6-3,3.6-3l114.4-0.7
			c0,0,1.2,0.6,2.6,1.5l-31.2,17.2L367.9,397.7z"/>
		
			<linearGradient id="SVGID_14_" gradientUnits="userSpaceOnUse" x1="317.2875" y1="63.701" x2="317.2875" y2="98.413" gradientTransform="matrix(1 0 0 -1 0 518)">
			<stop  offset="0" style="stop-color:#CCCCFF"/>
			<stop  offset="1" style="stop-color:#755CBB"/>
		</linearGradient>
		<path class="st16" d="M310.6,428.2l13.3-8.7l-3.2,8.7l-2.3,26.1L310.6,428.2z"/>
		
			<linearGradient id="SVGID_15_" gradientUnits="userSpaceOnUse" x1="277.0565" y1="76.47" x2="277.0565" y2="110.468" gradientTransform="matrix(1 0 0 -1 0 518)">
			<stop  offset="0" style="stop-color:#CCCCFF"/>
			<stop  offset="1" style="stop-color:#755CBB"/>
		</linearGradient>
		<path class="st17" d="M298.9,428.8l-13.9-7.9l-29.8-13.4l37.9,25l2.3,9L298.9,428.8z"/>
		<path class="st18" d="M337.2,160.8c0.1,0.6,0.2,0.9,0.2,0.9c-0.7,2.9-1.5,5.6-2.4,8.1c-2.8,8-6.3,13.7-8.9,17.3
			c-2.3,3.1-3.9,4.5-3.9,4.5c-20.8-6.5-31.1-26.9-35-37c0,0,0-0.1-0.1-0.2c-0.8-1.9-1.3-3.5-1.6-4.5c0,0,0,0,0,0
			c-0.2-0.8-0.4-1.2-0.4-1.2c0.1-0.2,0.2-0.4,0.3-0.5l0-0.1c0.3-0.7,0.7-1.4,1-2.1c2.7-6,4.5-11.5,5.7-15.9c1-3.7,1.6-6.6,1.8-8.1
			c0.1-0.8,0.2-1.2,0.2-1.2l9.7,5.1l33.5,17.7c-0.5,3.1-0.7,5.9-0.7,8.5c0,1.8,0,3.4,0.1,4.7c0.1,1.7,0.3,3,0.4,3.8v0
			C337.1,160.6,337.1,160.7,337.2,160.8z"/>
		
			<linearGradient id="SVGID_16_" gradientUnits="userSpaceOnUse" x1="311.5722" y1="318.992" x2="311.5722" y2="369.796" gradientTransform="matrix(1 0 0 -1 0 518)">
			<stop  offset="0" style="stop-color:#D5CDF8"/>
			<stop  offset="1" style="stop-color:#F3EDFB"/>
		</linearGradient>
		<path class="st19" d="M327.9,193.9c-1.9,1.9-4.2,3.6-6.9,5.1c-0.1,0-0.1,0.1-0.2,0.1c0,0-0.1,0-0.2-0.1l0,0
			c-0.7-0.4-3.2-2-6.6-4.5c-8.7-6.6-23.3-19.9-27.5-37.8c0,0,0,0,0-0.1c-0.5-2.1-0.8-4.3-1-6.5c0,0,0,0,0,0c0-0.6-0.1-1.2-0.1-1.8
			c0,0,2.9,6.8,7.9,14.2c5.9,8.6,14.8,18.1,25.4,18.1c9.2,0.1,13.9-6.2,16.2-12c1-2.5,1.6-4.8,1.9-6.6c0,0,0,0,0,0
			c0.1-0.5,0.2-1,0.2-1.4v0c0-0.2,0.1-0.4,0.1-0.5c0.1-0.6,0.1-1,0.1-1S340.8,180.9,327.9,193.9z"/>
		
			<linearGradient id="SVGID_17_" gradientUnits="userSpaceOnUse" x1="285.4" y1="344.444" x2="337.7444" y2="344.444" gradientTransform="matrix(1 0 0 -1 0 518)">
			<stop  offset="0" style="stop-color:#CCCCFF"/>
			<stop  offset="1" style="stop-color:#755CBB"/>
		</linearGradient>
		<path class="st20" d="M327.9,193.9c-1.9,1.9-4.2,3.6-6.9,5.1h-0.2l-0.2,0l0,0c-0.7-0.4-3.2-2-6.6-4.5
			c-8.7-6.6-23.3-19.9-27.5-37.8c0,0,0,0,0-0.1c-0.5-2.1-0.8-4.3-1-6.5c0,0,0,0,0,0c0-0.6-0.1-1.2-0.1-1.8c0,0,2.9,6.8,7.9,14.2
			c0,0,5.8,15.8,18.2,23.7c6.3,3.9,11,3.4,14.5,1c3.5-2.3,5.7-6.3,7.1-9.3c1.3-3,1.8-5.9,1.8-8c0-0.5,0-0.9,0-1.3
			c1-2.5,1.6-4.8,1.9-6.6c0,0,0,0,0,0c0.1-0.5,0.2-1,0.2-1.4v0c0-0.2,0.1-0.4,0.1-0.5c0.1-0.6,0.1-1,0.1-1S340.8,180.9,327.9,193.9z
			"/>
		
			<linearGradient id="SVGID_18_" gradientUnits="userSpaceOnUse" x1="296.6055" y1="116.0046" x2="296.6055" y2="372.008" gradientTransform="matrix(1 0 0 -1 0 518)">
			<stop  offset="0" style="stop-color:#9E8CEF"/>
			<stop  offset="1" style="stop-color:#CAAFEE"/>
		</linearGradient>
		<path class="st21" d="M408,323.2c-0.2,0.1-0.2,0.1-0.2,0.1c-1.2,0.1-4.8-0.7-9.6-4.8l0,0c0,0,0,0,0,0c0,0,0,0-0.1-0.1
			c-4-3.5-8.8-9.3-13.6-18.9c-9.6-19.1-12.3-31.9-12.7-34.1l-0.1-0.3l-5.6,8.8c-3.8,11.4-10.9,58.4-10.8,60.4
			c0.1,2,6.4,11.9,6.2,13.1c0,0,0,0,0,0c-0.2,1.2-3,3.9-3.8,6.9c-0.5,2,3.3,8.1,5.9,12.7v0c1.4,2.4,2.5,4.4,2.5,5.1
			c0,2.2-6.8,12.7-6.8,12.7v5.7l-0.1,0.1l-0.3,0.3l-0.3,0.2c-2.6,2-13.5,8.7-47.5,10.5c-40.3,2.2-67.2-10.8-67.2-10.8l2-5.5
			c0,0-1.9-1.6-2-2.4c-0.1-0.8,1.5-2.7,1.5-2.7s-4.1-2.2-4.1-4.9c0-2.7,8.1-11.1,7.9-18.2c-0.3-7.2-6.5-13.5-7.3-17.6
			c-0.8-4.1,10.6-14.1,10.6-14.1c-9.7-30.8-11.6-72.2-11.6-72.2l-1.9-2.2c0,0-11.6,26.5-22.2,39.5c-1.3,1.5-2.6,3.1-4,4.5
			c-2.9,3.2-6.1,6.2-9.1,8.8c-7.3,6.4-13.9,10.5-15.6,10.2c-2.7-0.5-13.5-21.9-13-43.8c0.2-10.4,6.5-22.1,13-31.4
			c0.7-1,1.4-2,2.1-2.9c4.6-6.3,9.1-11.2,11.2-13.5c0.8-0.9,1.3-1.4,1.3-1.4s-1.5-4.8-2.5-8.9c0-0.1,0-0.2-0.1-0.3c0,0,0-0.1,0-0.1
			c0-0.1,0-0.1,0-0.1c-0.6-2.6-1-4.8-0.6-5.3c0.9-1.4,6.1-3.1,7-4.1c0.9-1.1,4.7-19.3,7.6-21.3c2.8-1.9,7.6-3.3,23.9-9.7
			c0.8-0.3,1.6-0.6,2.5-1c18.2-7.2,36.1-15.9,36.1-15.9l6.9-8.4h3.1l-1,2.1l0,0.1c0.5,2.2,1,4.3,1.7,6.2c0,0.1,0,0.1,0.1,0.2
			c9.4,29.7,33.7,39.3,33.7,39.3c16.8-12.4,16.5-32.2,16.5-32.2V159l3.2,0.9l2.2,5.1c0,0,3.7,5.7,18.1,12c2.5,1.1,5.2,2.5,8,4.1
			c13.2,7.5,28,19.1,29.1,21.6c0.1,0.3,0.2,0.7,0.4,1.2v0c1.6,6.1,4.8,29,7.7,37.1c1.9,5.1,4.8,7.9,6.9,9.4c0,0,0,0,0,0
			c1.6,1.1,2.8,1.4,2.8,1.4c0.2,1.3,0.4,2.5,0.6,3.7C422.5,294.8,410.7,321.4,408,323.2z"/>
		
			<linearGradient id="SVGID_19_" gradientUnits="userSpaceOnUse" x1="190.291" y1="275.528" x2="252.679" y2="275.528" gradientTransform="matrix(1 0 0 -1 0 518)">
			<stop  offset="0" style="stop-color:#CCCCFF"/>
			<stop  offset="1" style="stop-color:#755CBB"/>
		</linearGradient>
		<path class="st22" d="M252.7,249.4l-11.8,4l-1.9-2.2c0,0-11.6,26.5-22.2,39.5c-1.3,1.5-2.6,3.1-4,4.5c-2.9,3.2-6.1,6.2-9.1,8.8
			l-9-38.6l-4.6-29.3c4.6-6.3,9.1-11.2,11.2-13.5c0.8-0.9,1.3-1.4,1.3-1.4s-1.5-4.8-2.5-8.9c0-0.1,0-0.2-0.1-0.3c0,0,0-0.1,0-0.1
			c0-0.1,0-0.1,0-0.1c-0.6-2.6-1-4.8-0.6-5.3c0.9-1.4,6.1-3.1,7-4.1c0.9-1.1,4.7-19.3,7.6-21.3c0,0-1.9,17.5,8.1,39.6l4.9,6.8
			l14.2,11.4C241.4,238.9,246.8,246.1,252.7,249.4z"/>
		
			<linearGradient id="SVGID_20_" gradientUnits="userSpaceOnUse" x1="188.3614" y1="203.83" x2="188.3614" y2="323.543" gradientTransform="matrix(1 0 0 -1 0 518)">
			<stop  offset="0" style="stop-color:#9E8CEF"/>
			<stop  offset="1" style="stop-color:#DAC7F3"/>
		</linearGradient>
		<path class="st23" d="M218.6,281c-2.5,18.7-30.5,33.2-30.5,33.2c-6.2,0-13.2-10.8-19.5-24.2c-6.3-13.3-6.7-51.7-7-54
			c-0.3-2.4-3.9-7.1-4.1-9.1c-0.2-2,5.7-6.2,5.7-6.2l0-0.1l0-0.1c-0.6-1.3-4.1-8.7-3.8-10.1c0.3-1.5,6.9-4.7,6.9-4.7l0.4,7.3
			c0,0,15.4-2.9,20.6-14.8l0.9-3.7l2.6,1.7v15.7c0,0,0.5,2.4,1.3,2.4c0.8,0,6.8-3,8.1-2.6c1.3,0.4,2.5,8.8,4.2,9.9
			c1.7,1.1,6.1,4.2,6.8,5.7c0.3,0.7,0.3,3.1,0.4,5.9c0,3.5,0.1,7.6,0.6,9.9C213.1,247.3,221.2,262.3,218.6,281z"/>
		
			<linearGradient id="SVGID_21_" gradientUnits="userSpaceOnUse" x1="394.3584" y1="238.3326" x2="474.7429" y2="238.3326" gradientTransform="matrix(1 0 0 -1 0 518)">
			<stop  offset="0" style="stop-color:#A999F1"/>
			<stop  offset="1" style="stop-color:#DAC7F3"/>
		</linearGradient>
		<path class="st24" d="M474.2,265c-1.3,2-7.6,6.1-9.2,7.8c-1.6,1.6,0,6.9,0,6.9c-26.5,28.1-54.2,42.2-56.9,43.6
			c-0.2,0.1-0.2,0.1-0.2,0.1c-16.6-11.2-15.2-29.6-9.7-45.1c5.3-14.9,14.3-27.1,14.7-27.6l0,0c0,0,0,0,0,0c0.3-0.1,5.1-2.1,8.5-2.3
			c1.1-0.1,2.2,0.4,3.1,1c2,1.3,3.7,3.2,5.4,2.4c2.4-1.2,7.9-14.1,11.6-14.5c2.6-0.2,6.2,2.4,8.6,3.9c1,0.7,1.9,1.1,2.3,1
			c1.4-0.4,6-5.9,6.3-6c0.4-0.2,2.5,1.4,2.5,1.4l-1.5,1.8c2.3,13,9.7,21.7,9.7,21.7l5-7.2C474.2,253.7,475.4,263,474.2,265z"/>
		<path class="st25" d="M337.2,160.2c0,0.2-0.1,0.4-0.1,0.6c-0.1,0.4-0.2,0.8-0.3,1.1c0,0,0,0,0,0c-1.7,6.3-8.6,12.7-17.2,9.6
			c-9.5-3.4-27.5-41.5-27.5-41.5l1.8-8.1l42.8,34.8l0.5,3.3L337.2,160.2z"/>
		<path class="st26" d="M194.8,153.2c0,0-2.6-14.4-1.4-25.1c1.2-10.6-0.3-22.7-0.3-22.7s-2.6-1.1-4.5,0c-1.9,1.1-6.3,12.1-4.3,20.9
			c2,8.8,0.5,30,0.5,30h-3l-6.5-8.9l-3.2-0.9c0,0-18.2,17.1-17.9,27.3l2.4,9.1l22.4-0.8l14.6-16.7L194.8,153.2z"/>
		
			<linearGradient id="SVGID_22_" gradientUnits="userSpaceOnUse" x1="162.2085" y1="339.8887" x2="162.2085" y2="371.4382" gradientTransform="matrix(1 0 0 -1 0 518)">
			<stop  offset="1.600000e-02" style="stop-color:#FFC2A9"/>
			<stop  offset="1" style="stop-color:#FF9595"/>
		</linearGradient>
		<path class="st27" d="M172.1,146.6c0,0,0.5,11.4,3,21.1c0,0-0.4,4-5.1,4.3l-1.2-1.3c0,0-0.8,4.5-4.9,4.9l-3.9-3.9l1,3.2
			c0,0-1.4,3.5-5.1,3.3c0,0-6.2-4.9-6.6-11.2l6.2-5.2v-4l7.3-5.1l0.1-2.9C162.9,149.7,167.2,146.5,172.1,146.6z"/>
		
			<linearGradient id="SVGID_23_" gradientUnits="userSpaceOnUse" x1="182.1245" y1="340.621" x2="182.1245" y2="392.866" gradientTransform="matrix(1 0 0 -1 0 518)">
			<stop  offset="0" style="stop-color:#FFEADB"/>
			<stop  offset="0.9944" style="stop-color:#C27CB6"/>
		</linearGradient>
		<path class="st28" d="M193.7,125.1c0,0-1.1,2.8-2.7,3.9c-1.6,1.1-6.1,1.9-6.1,1.9l-0.2,25.5h-3l-6.5-8.9c0,0,3.3,5.1,3.5,8.9
			l-2.6,1.3L174,150l-1.1,5.5l1.1,6.8c0,0,3.9-3.3,10.8-3.4l1,1.9c0,0-12.6,10.4-15.5,16.6c0,0,6.2-7.9,20.4-16.6l1.4-4.2l1.8-10
			C193.9,146.6,192.2,132.2,193.7,125.1z"/>
		
			<linearGradient id="SVGID_24_" gradientUnits="userSpaceOnUse" x1="180.4074" y1="305.068" x2="180.4074" y2="385.618" gradientTransform="matrix(1 0 0 -1 0 518)">
			<stop  offset="1.600000e-02" style="stop-color:#FFC2A9"/>
			<stop  offset="1" style="stop-color:#FF9595"/>
		</linearGradient>
		<path class="st29" d="M204.2,169.5c-1.2,3.5-13.4,18.1-14.8,21.3c-1.4,3.2-2.2,7.3-2.2,7.3c-6,13-20.6,14.8-20.6,14.8l-0.7-11.8
			c0,0-7.8-4.5-9.2-7l0,0l-0.2-0.4c-0.4-2.3-0.1-10.8-0.1-10.8l13.7-5.6c6-7.7,20.4-16.6,20.4-16.6l0.7-4
			c-10.4-5.1-8.7-20.6-6.9-22.5c1.8-1.9,5-1.9,5-1.9s3.8,12.4,6.2,18.2C198.2,156.4,205.4,166,204.2,169.5z"/>
		<path class="st30" d="M162.9,149.7c0,0,1.5,14.2,6,20.9c0,0-5.7-7.1-6.2-18L162.9,149.7z"/>
		<path class="st30" d="M155.4,157.7c0,0,1.5,11.4,8.5,17.8c0,0-6.2-3.1-8.5-13.8V157.7z"/>
		
			<linearGradient id="SVGID_25_" gradientUnits="userSpaceOnUse" x1="166.007" y1="317.637" x2="191.348" y2="317.637" gradientTransform="matrix(1 0 0 -1 0 518)">
			<stop  offset="1.600000e-02" style="stop-color:#D1A1D6"/>
			<stop  offset="0.9944" style="stop-color:#BD89C4"/>
		</linearGradient>
		<path class="st31" d="M191.3,187.8c0,0-15.5,15-25.3,13.4l0.7,11.8c0,0,16.2-1.4,21.5-18.5C188.2,194.4,190.1,189.5,191.3,187.8z"
			/>
		
			<linearGradient id="SVGID_26_" gradientUnits="userSpaceOnUse" x1="476.3999" y1="256.004" x2="476.3999" y2="363.7206" gradientTransform="matrix(1 0 0 -1 0 518)">
			<stop  offset="1.600000e-02" style="stop-color:#FFC2A9"/>
			<stop  offset="1" style="stop-color:#FF9595"/>
		</linearGradient>
		<path class="st32" d="M518.3,208.2c0,0-14.2,26-30.8,33.9h-5.7L468.7,262c0,0-8.5-5.3-9.1-22.8c0,0,3-3.1,3.7-6.6
			c0,0-4.7-3.7-6-6.4c-1.3-2.7-1.7-10.8-2.6-14.2c-0.9-3.3-8.6-10.3-10.3-11.2c-1.7-0.9-9.5-1.4-9.5-1.4s-1.1-2.8,0-4.1
			c1.1-1.4,13.2-6,19.7-1.5c0,0,0.5,3.4,1.2,5.2c0.7,1.8,6.5,8.2,7.4,8.2c0.9,0,4.8-3.2,6.5-5.8c1.6-2.4,10.4-21.2,12.5-27.6
			c0-0.1,0-0.1,0.1-0.2c0-0.1,0.1-0.2,0.1-0.3c0-0.1,0-0.1,0.1-0.2c0,0,0,0,0-0.1c1.6-5.5,11.1-16,16.1-18.9c0,0,2.2-0.5,3.3,2.2
			c0,0-4.1,11.5-8.3,18.4c-0.7,1.2-1.5,2.5-2.3,4c0,0,0,0,0,0c-3.6,6.6-7.7,15.3-8.3,16.6l-0.1,0.2l2.3,1.2l6.1-5.8l6.3-5.9
			l14.3,15.1l-1.4,1.8l-4.5,5.7l2.3,0.4l5.3-5.8L518.3,208.2z"/>
		
			<linearGradient id="SVGID_27_" gradientUnits="userSpaceOnUse" x1="489.147" y1="290.53" x2="489.147" y2="344.044" gradientTransform="matrix(1 0 0 -1 0 518)">
			<stop  offset="0" style="stop-color:#FFEADB"/>
			<stop  offset="0.9944" style="stop-color:#C27CB6"/>
		</linearGradient>
		<path class="st33" d="M515,213.7l-4.5,6.7c0,0-24.9-19.2-30.3-20.8c-5.4-1.6-7.4-0.5-7.4-0.5l-5.6,7.1c0,0,10.3,9.1,11.2,21.4
			c0,0-3.4-15.5-15.1-20.2c0.9,0,4.8-3.2,6.5-5.8c1.6-2.4,10.4-21.2,12.5-27.6c-0.3,1.1-0.7,3.2,0.2,4.9c1.2,2.3,8.5,0.1,8.9,0
			c0,0,0,0,0,0l-8.3,16.6l-0.1,0.2l2.3,1.2l6.1-5.8l-3.1,7.1l22.2,3.9l-4.5,5.8l2.3,0.4L515,213.7z"/>
		
			<linearGradient id="SVGID_28_" gradientUnits="userSpaceOnUse" x1="499.711" y1="309.005" x2="499.711" y2="332.9802" gradientTransform="matrix(1 0 0 -1 0 518)">
			<stop  offset="0" style="stop-color:#FFB0B0"/>
			<stop  offset="0.984" style="stop-color:#FFC2A9"/>
		</linearGradient>
		<path class="st34" d="M497.6,185c0,0,4.3-0.6,7.1,5l-0.6,1.8c0,0,4.2,0.8,8.3,7.7c0,0-3.6,6.6-12.5,9.5c0,0-4.2-1.2-4.9-4.7
			l0.8-2.3l-3.2,2.4c0,0-3.9,1.2-5.6-4.6L497.6,185z"/>
		
			<linearGradient id="SVGID_29_" gradientUnits="userSpaceOnUse" x1="513.6337" y1="305.296" x2="513.6337" y2="318.45" gradientTransform="matrix(1 0 0 -1 0 518)">
			<stop  offset="0" style="stop-color:#FFB0B0"/>
			<stop  offset="0.984" style="stop-color:#FFC2A9"/>
		</linearGradient>
		<path class="st35" d="M519.6,206.4c0,0,0.9-4.2-3.5-6.8l-8.6,9.5c0,0,0.3,3,4,3.7C511.5,212.7,517.4,210.7,519.6,206.4z"/>
		
			<linearGradient id="SVGID_30_" gradientUnits="userSpaceOnUse" x1="457.317" y1="279.0735" x2="481.802" y2="279.0735" gradientTransform="matrix(1 0 0 -1 0 518)">
			<stop  offset="1.600000e-02" style="stop-color:#D1A1D6"/>
			<stop  offset="0.9944" style="stop-color:#BD89C4"/>
		</linearGradient>
		<path class="st36" d="M457.3,226.2c0,0,9.9,11.1,24.5,15.9l-6.3,9.5L462.4,235l0.8-2.4C463.3,232.6,458,228.7,457.3,226.2z"/>
		<path class="st30" d="M504.1,191.8c0,0-4.2,6.8-8.3,10.3l-0.8,2.3c0,0,8.1-5.4,11-11.7C506,192.6,505.1,191.9,504.1,191.8z"/>
		
			<linearGradient id="SVGID_31_" gradientUnits="userSpaceOnUse" x1="423.2445" y1="194.6259" x2="423.2445" y2="315.197" gradientTransform="matrix(1 0 0 -1 0 518)">
			<stop  offset="0" style="stop-color:#CCCCFF"/>
			<stop  offset="1" style="stop-color:#755CBB"/>
		</linearGradient>
		<path class="st37" d="M474.2,265c-1.3,2-7.6,6.1-9.2,7.8c-1.6,1.6,0,6.9,0,6.9c-26.5,28.1-54.2,42.2-56.9,43.6
			c-0.2,0.1-0.2,0.1-0.2,0.1c-2.2,0.3-12.7-2.7-23.3-23.8c-9.6-19.1-12.3-31.9-12.7-34.1l-0.1-0.3l2.3-3.2l3.5-38.9l2.4,7.8
			c9.2-11.1,17.9-28.1,17.9-28.1l0.4,1.2v0c1.6,6.1,4.8,29,7.7,37.1c1.9,5.1,4.8,7.9,6.9,9.4l0,0l0,0c-8.5,7.7-12.7,18.8-14.7,27.6
			c-1.9,8.1-2,14.3-2,14.3s2.3-11,9.7-24.2c2.7-4.8,6.6-9.1,10.5-12.6c2.9-2.7,5.8-4.9,8.2-6.5c2,1.3,3.7,3.2,5.4,2.4
			c-11.1,16.7-10.9,49.8-0.4,43.5c10.5-6.3,12.8-19.7,12.8-19.7c-2.5-16.3-1.7-34.7,0.3-38.2c2.4,0.1,9.3,4.9,9.7,4.8
			c-0.6,19.2,8.4,32,8.4,32l6-9.2c-8.7-14.6-8-28.8-8-28.8c0.4-0.2,2.5,1.4,2.5,1.4l-1.5,1.8c2.3,13,9.7,21.7,9.7,21.7l5-7.2
			C474.2,253.7,475.4,263,474.2,265z"/>
		
			<linearGradient id="SVGID_32_" gradientUnits="userSpaceOnUse" x1="157.598" y1="218.9178" x2="359.396" y2="218.9178" gradientTransform="matrix(1 0 0 -1 0 518)">
			<stop  offset="0" style="stop-color:#CCCCFF"/>
			<stop  offset="1" style="stop-color:#755CBB"/>
		</linearGradient>
		<path class="st38" d="M359.4,385v5.7l-0.1,0.1l-0.3,0.3l-0.3,0.2c-2.6,2-13.5,8.7-47.5,10.5c-40.3,2.2-67.2-10.8-67.2-10.8l2-5.5
			c0,0-1.9-1.6-2-2.4c-0.1-0.8,1.5-2.7,1.5-2.7s-4.1-2.2-4.1-4.9c0-2.4,6.6-9.5,7.7-16.1c0.1-0.7,0.2-1.4,0.2-2.1
			c-0.3-7.1-6.4-13.5-7.3-17.5c0,0,0-0.1,0-0.1c-0.8-4.1,10.6-14.1,10.6-14.1c-9.7-30.8-11.6-72.2-11.6-72.2l-1.9-2.2
			c0,0-11.6,26.5-22.2,39.5c-10.6,13-26,24.1-28.7,23.5c-6.2,0-13.2-10.8-19.5-24.2c-6.3-13.3-6.7-51.7-7-54
			c-0.3-2.4-3.9-7.1-4.1-9.1c6.8,11.6,17.5,8.2,17.5,8.2c-7.8,0.2-11.9-14.4-11.9-14.4l0-0.1l0-0.1l-3.8-10.1
			c0.4,0.5,9.4,10.5,18,4.3c8.8-6.3,13.4-18.5,13.4-18.5v15.7c0,0,0.5,2.4,1.3,2.4c-0.5,7.2-2.1,16-3.9,24.7
			c-4,18.7-9.5,36.8-9.5,36.8s14.9-8.1,20.1-28.6c2.5-9.8,2.9-18.4,2.7-24.6c-0.2-5.3-0.9-9-1.2-10.3c0-0.1,0-0.2-0.1-0.3
			c0,0,0-0.1,0-0.1c0,0,0-0.1,0-0.1l1.4,3.1l2.7,6.8c3.2,26.4-3.4,66.1-3.4,66.1c9.6-11.9,11.5-38.2,11.1-44.6
			c-0.2-3.1-0.4-6.8-0.6-9.9c-0.2-3.4-0.4-5.9-0.4-5.9l19.6,11.7l-3.6-11.4l14.2,11.4c0,0,12.8,15.4,26,17.2
			c13.2,1.8,61.5,0.7,61.5,0.7s-42,2.7-54.3,6.3c-12.3,3.6-14.6,7.7-14.6,7.7c8.9,45.1,57.9,60.3,59.5,60.7
			c-44.5-6.7-65.2-44.5-65.2-44.5s-0.7,21.3,2.7,29.4c3.4,8.1,23.6,27.9,49.6,32.1c2.2,0.3,4.3,0.6,6.5,0.7
			c21.9,1,40-10.2,41.9-11.4c0.1-0.1,0.2-0.1,0.2-0.1s0,0,0,0.1c-0.7,1.1-9.7,13.7-45.9,15.1c-2.2,0.1-4.3,0.1-6.4,0c0,0,0,0,0,0
			c-33.6-1.4-50.7-23.8-50.7-23.8s-12.4,6.7-4.5,16.6c0.1,0.1,0.2,0.2,0.3,0.3c2.3,2.7,7.5,6,13.6,9.4c0.2,0.1,0.3,0.2,0.5,0.3
			c7.4,4.1,16,8.3,22.7,11.7c0,0,0.1,0,0.1,0c4.1,2.1,7.4,4,9.3,5.3c0,0,0,0,0,0c1.9,1.4,2.3,2.3,0.4,2.5
			c-9.4,1.1-44.9-6.7-46.3-4.5c-1.4,2.2,1.8,7.7,1.8,7.7c32.6,16.1,102.4,8.2,104.6,7.9c-58.4,14.9-106.2-4-106.2-4l1.6,5.6
			c0,0,26,9,56.7,9.7c30.7,0.7,49.8-7.1,49.8-7.1L359.4,385z"/>
		
			<linearGradient id="SVGID_33_" gradientUnits="userSpaceOnUse" x1="335.511" y1="252.665" x2="374.086" y2="252.665" gradientTransform="matrix(1 0 0 -1 0 518)">
			<stop  offset="0" style="stop-color:#CCEDFF"/>
			<stop  offset="1" style="stop-color:#755CBB"/>
		</linearGradient>
		<path class="st39" d="M335.5,256.7c0,0,23.2,1.3,38.6,5.3l-7.9,12C366.2,274,354.3,263.5,335.5,256.7z"/>
		
			<linearGradient id="SVGID_34_" gradientUnits="userSpaceOnUse" x1="300.52" y1="185.0225" x2="357.211" y2="185.0225" gradientTransform="matrix(1 0 0 -1 0 518)">
			<stop  offset="0" style="stop-color:#CCEDFF"/>
			<stop  offset="1" style="stop-color:#755CBB"/>
		</linearGradient>
		<path class="st40" d="M357.2,320.6c0,0-14.5,12.1-28.7,17.7c-14.2,5.6-28,6.1-28,6.1s8.2,2.4,28.3-0.8
			c20.2-3.2,27.1-14.2,27.1-14.2L357.2,320.6z"/>
		
			<linearGradient id="SVGID_35_" gradientUnits="userSpaceOnUse" x1="303.1442" y1="159.4006" x2="363.707" y2="159.4006" gradientTransform="matrix(1 0 0 -1 0 518)">
			<stop  offset="0" style="stop-color:#CCEDFF"/>
			<stop  offset="1" style="stop-color:#755CBB"/>
		</linearGradient>
		<path class="st41" d="M363.7,367.2L363.7,367.2c-26.8,6.9-60.8-3-60.6-4.2c0.3-1.2,9.3,0.5,30.3-3.7c20.3-4.1,27.7-11.3,28.1-11.7
			c-0.2,1.2-3,3.9-3.8,6.9C357.2,356.4,361,362.6,363.7,367.2z"/>
		
			<linearGradient id="SVGID_36_" gradientUnits="userSpaceOnUse" x1="251.023" y1="222.819" x2="251.023" y2="290.744" gradientTransform="matrix(1 0 0 -1 0 518)">
			<stop  offset="0" style="stop-color:#CCEDFF"/>
			<stop  offset="1" style="stop-color:#755CBB"/>
		</linearGradient>
		<path class="st42" d="M290.9,260.3c-22.9,2.3-29.1,8.7-29.1,8.7c-6.4,0.8-20.9-15.7-20.9-15.7l-1.9-2.2c0,0-11.6,26.5-22.2,39.5
			c-1.3,1.5-2.6,3.1-4,4.5l1.5-3.4c0,0,2.5-1.2,3.2-14.1c0.7-12.9-5.4-32.1-5.5-34.7c0-2.6-0.9-15.8-0.9-15.8l19.6,11.7l-3.6-11.4
			l14.2,11.4c0,0,5.6,8.4,19.7,15.4C274.3,260.9,289.2,260.4,290.9,260.3z"/>
		
			<linearGradient id="SVGID_37_" gradientUnits="userSpaceOnUse" x1="256.5045" y1="217.113" x2="256.5045" y2="268.602" gradientTransform="matrix(1 0 0 -1 0 518)">
			<stop  offset="0" style="stop-color:#CCEDFF"/>
			<stop  offset="1" style="stop-color:#755CBB"/>
		</linearGradient>
		<path class="st43" d="M239,251.2l13.6-1.8c0,0,5.5,3.6,16.4,8.1l-9.1,13.5c0,0,3.6,19.2,14,30c0,0-27.6-15.3-31.5-28.2L239,251.2z
			"/>
		
			<linearGradient id="SVGID_38_" gradientUnits="userSpaceOnUse" x1="175.0645" y1="282.9294" x2="175.0645" y2="321.831" gradientTransform="matrix(1 0 0 -1 0 518)">
			<stop  offset="0" style="stop-color:#CCEDFF"/>
			<stop  offset="1" style="stop-color:#755CBB"/>
		</linearGradient>
		<path class="st44" d="M159.4,210.4l3.9,10.3c0,0,4,13.8,11.9,14.4c7.9,0.6,15.6-23.2,15.6-23.2v-15.7c0,0-8.4,18-17.5,20
			C164.2,218.2,159.4,210.4,159.4,210.4z"/>
		
			<linearGradient id="SVGID_39_" gradientUnits="userSpaceOnUse" x1="206.565" y1="317.187" x2="222.255" y2="317.187" gradientTransform="matrix(1 0 0 -1 0 518)">
			<stop  offset="0" style="stop-color:#CCEDFF"/>
			<stop  offset="1" style="stop-color:#755CBB"/>
		</linearGradient>
		<path class="st45" d="M206.6,202.3c0,0,7,14.1,15.7,18.4c0,0-10.3-25-8.1-39.6C214.1,181,210.3,183.3,206.6,202.3z"/>
		
			<linearGradient id="SVGID_40_" gradientUnits="userSpaceOnUse" x1="377.1055" y1="222.819" x2="377.1055" y2="294.924" gradientTransform="matrix(1 0 0 -1 0 518)">
			<stop  offset="0" style="stop-color:#CCCCFF"/>
			<stop  offset="1" style="stop-color:#755CBB"/>
		</linearGradient>
		<path class="st46" d="M377.5,223.1l2.4,7.8l2.5,64.3c0,0-6.2-12.2-10.6-29.7l2.3-3.5C374.1,262,377.9,237.8,377.5,223.1z"/>
		
			<linearGradient id="SVGID_41_" gradientUnits="userSpaceOnUse" x1="458.2299" y1="238.327" x2="458.2299" y2="276.006" gradientTransform="matrix(1 0 0 -1 0 518)">
			<stop  offset="0" style="stop-color:#CCCCFF"/>
			<stop  offset="1" style="stop-color:#755CBB"/>
		</linearGradient>
		<path class="st47" d="M452.3,242c0,0-1.4,31.6,12,34.3l0.7,3.4C465,279.7,447.6,279,452.3,242z"/>
		
			<linearGradient id="SVGID_42_" gradientUnits="userSpaceOnUse" x1="415.466" y1="240.011" x2="415.466" y2="268.816" gradientTransform="matrix(1 0 0 -1 0 518)">
			<stop  offset="0" style="stop-color:#CCCCFF"/>
			<stop  offset="1" style="stop-color:#755CBB"/>
		</linearGradient>
		<path class="st48" d="M429.9,251.6c0,0-0.5,1.1-5.4-2.4c0,0-16.9,12-23.4,28.8c0,0,10.4-15.5,15.9-17.2c5.5-1.7,6.9,4.5,6.9,4.5
			S426.1,256.6,429.9,251.6z"/>
		
			<linearGradient id="SVGID_43_" gradientUnits="userSpaceOnUse" x1="166.9183" y1="280.4462" x2="166.9183" y2="291.143" gradientTransform="matrix(1 0 0 -1 0 518)">
			<stop  offset="0" style="stop-color:#CCEDFF"/>
			<stop  offset="1" style="stop-color:#755CBB"/>
		</linearGradient>
		<path class="st49" d="M157.6,226.9c0,0,6.5,12,18.7,8.2c0,0-7.3,4.9-14.6,0.9C161.7,236,157.1,228.2,157.6,226.9z"/>
		
			<linearGradient id="SVGID_44_" gradientUnits="userSpaceOnUse" x1="195.5114" y1="247.829" x2="195.5114" y2="306.294" gradientTransform="matrix(1 0 0 -1 0 518)">
			<stop  offset="0" style="stop-color:#CCCCFF"/>
			<stop  offset="1" style="stop-color:#755CBB"/>
		</linearGradient>
		<path class="st50" d="M200.2,211.7c0,0,8.9,33.4-14.4,58.5c0,0,15.1-7.8,18.6-25.7C207.8,226.4,200.2,211.7,200.2,211.7z"/>
		
			<linearGradient id="SVGID_45_" gradientUnits="userSpaceOnUse" x1="346.0201" y1="288.989" x2="346.0201" y2="332.974" gradientTransform="matrix(1 0 0 -1 0 518)">
			<stop  offset="0" style="stop-color:#CCEDFF"/>
			<stop  offset="1" style="stop-color:#755CBB"/>
		</linearGradient>
		<path class="st51" d="M360.3,185c0,0-1,15.1-8.2,25.9c-7.2,10.8-21.6,18.1-21.6,18.1s18-6.6,26.2-15.9
			C364.9,203.7,360.3,185,360.3,185z"/>
		
			<linearGradient id="SVGID_46_" gradientUnits="userSpaceOnUse" x1="288.3436" y1="294.938" x2="288.3436" y2="355.658" gradientTransform="matrix(1 0 0 -1 0 518)">
			<stop  offset="0" style="stop-color:#CCEDFF"/>
			<stop  offset="1" style="stop-color:#755CBB"/>
		</linearGradient>
		<path class="st52" d="M268.2,162.3c0,0,0,12.6,4.1,25.4c4.1,12.8,39.3,35.3,39.3,35.3s-36.3-15.1-43.3-28.6
			C261.2,180.9,268.2,162.3,268.2,162.3z"/>
		
			<linearGradient id="SVGID_47_" gradientUnits="userSpaceOnUse" x1="276.578" y1="342.347" x2="342.621" y2="342.347" gradientTransform="matrix(1 0 0 -1 0 518)">
			<stop  offset="0" style="stop-color:#CCCCFF"/>
			<stop  offset="1" style="stop-color:#755CBB"/>
		</linearGradient>
		<path class="st53" d="M342.6,165.1c-1.1,13.3-5.2,22.5-9.5,28.7c-5.9,8.6-12.4,11.5-12.4,11.5c-6.4-2.8-12-6.3-16.8-10.1
			c-20.4-16.3-26.9-38.8-27.4-40.7c8.6,20.7,21.2,33.3,30.8,40.4c7.7,5.7,13.4,7.9,13.4,7.9v-6.6c-1.5-0.6-3-1.2-4.4-1.9
			c-16.8-8.5-25.7-26.2-29.8-37.6c0,0,0,0,0-0.1c-2.2-6.2-3.1-10.5-3.1-10.5h3.1l-1,2.1l0,0.1c0.5,2.2,1,4.3,1.7,6.2
			c0,0.1,0,0.1,0.1,0.2c9.4,29.7,33.7,39.3,33.7,39.3c16.8-12.4,16.5-32.2,16.5-32.2V159l3.2,0.9L342.6,165.1z"/>
		
			<linearGradient id="SVGID_48_" gradientUnits="userSpaceOnUse" x1="446.3594" y1="242.636" x2="446.3594" y2="280.828" gradientTransform="matrix(1 0 0 -1 0 518)">
			<stop  offset="0" style="stop-color:#CCCCFF"/>
			<stop  offset="1" style="stop-color:#755CBB"/>
		</linearGradient>
		<path class="st54" d="M442.6,237.2c0,0-4.6,15-0.3,38.2c0,0,2.2-29.5,3.8-32c1.6-2.6,6.2-1.4,6.2-1.4S445.1,238,442.6,237.2z"/>
		
			<linearGradient id="SVGID_49_" gradientUnits="userSpaceOnUse" x1="392.3315" y1="199.536" x2="392.3315" y2="315.197" gradientTransform="matrix(1 0 0 -1 0 518)">
			<stop  offset="0" style="stop-color:#CCCCFF"/>
			<stop  offset="1" style="stop-color:#755CBB"/>
		</linearGradient>
		<path class="st55" d="M398.1,318.5c-4-3.5-8.8-9.3-13.6-18.9c-9.6-19.1-12.3-31.9-12.7-34.1l2.3-3.5l3-29.4l2.8-1.7
			c0,0,10.1-11.2,17.9-28.1c0.1,0.3,0.2,0.7,0.4,1.2v0c1.6,6.1,4.8,29,7.7,37.1c1.9,5.1,4.8,7.9,6.9,9.4c0,0-17.6,26.1-18.4,44.6
			C393.7,312.1,397.4,317.6,398.1,318.5z"/>
		
			<linearGradient id="SVGID_50_" gradientUnits="userSpaceOnUse" x1="267.898" y1="145.208" x2="267.898" y2="178.364" gradientTransform="matrix(1 0 0 -1 0 518)">
			<stop  offset="0" style="stop-color:#CCCCFF"/>
			<stop  offset="1" style="stop-color:#755CBB"/>
		</linearGradient>
		<path class="st56" d="M293.8,372.8c0,0-31.7-5.2-44.6-13.5c0,0,0,0,0,0c0.1-0.7,0.2-1.4,0.2-2.1c-0.3-7.1-6.4-13.5-7.3-17.5
			c0.1,0.4,1.1,2.5,5.6,6.4c2.8,2.4,7.1,5.6,13.6,9.4c0.2,0.1,0.3,0.2,0.5,0.3c9.1,5.4,17,9,22.7,11.7c0,0,0.1,0,0.1,0
			C289.6,369.9,292.9,371.4,293.8,372.8C293.8,372.8,293.8,372.8,293.8,372.8z"/>
		
			<linearGradient id="SVGID_51_" gradientUnits="userSpaceOnUse" x1="332.349" y1="154.3159" x2="332.349" y2="170.417" gradientTransform="matrix(1 0 0 -1 0 518)">
			<stop  offset="0" style="stop-color:#CCCCFF"/>
			<stop  offset="1" style="stop-color:#755CBB"/>
		</linearGradient>
		<path class="st57" d="M361.6,347.6c-0.2,1.2-3,3.9-3.8,6.9c0,0-11.6,12.3-54.6,8.5c0.3-1.2,9.3,0.5,30.3-3.7
			C353.7,355.2,361.1,348,361.6,347.6z"/>
		<path class="st58" d="M368.7,181.2l-27.5,8.9l-8.1,3.7l0,0l-5.2,0l-7.1,0l-4.4,0.4l-2.3,0.2l-6.7,0.5l-3.4,0.3l-33-11.9l-5.9-2.1
			l-27.1-9.8c0.8-0.3,1.6-0.6,2.5-1c18.2-7.2,36.1-15.9,36.1-15.9l6.9-8.4h3.1c2.7-6,4.5-11.5,5.7-15.9l1.8-8.1
			c0.1-0.8,0.2-1.2,0.2-1.2l9.7,5.1l32.7,26.2c0,1.8,0,3.4,0.1,4.7l0.5,3.3c0.1-0.6,0.1-1,0.1-1l3.2,0.9l2.2,5.1
			c0,0,3.7,5.7,18.1,12C363.2,178.2,365.9,179.6,368.7,181.2z"/>
		
			<linearGradient id="SVGID_52_" gradientUnits="userSpaceOnUse" x1="331.6387" y1="361.276" x2="331.6387" y2="471.426" gradientTransform="matrix(1 0 0 -1 0 518)">
			<stop  offset="1.600000e-02" style="stop-color:#FFC2A9"/>
			<stop  offset="1" style="stop-color:#FF9595"/>
		</linearGradient>
		<path class="st59" d="M347.8,156.1c0,0-12.8,2.9-27-4c-14.1-6.8-26-27-26.8-32.1c-0.7-5.1,5.4-18.2,5.4-28.5
			c0-10.3-5-27.9,3.4-37.5c8.5-9.5,47.4-11,60.1,1.3c0,0,3.9,9.8,3.9,15.4c0,1.3-0.2,3.3-0.6,5.6c-0.1,0.8-0.3,1.7-0.4,2.7
			c-1.1,6.7-2.7,14.9-2,18.5c0.3,1.3,0.7,2.4,1.1,3.5v0c1.6,3.6,3.9,6.5,4.3,9.6C369.8,114.7,364.4,143.5,347.8,156.1z"/>
		
			<linearGradient id="SVGID_53_" gradientUnits="userSpaceOnUse" x1="290.5507" y1="405.729" x2="290.5507" y2="438.2056" gradientTransform="matrix(1 0 0 -1 0 518)">
			<stop  offset="1.600000e-02" style="stop-color:#FFC2A9"/>
			<stop  offset="1" style="stop-color:#FF9595"/>
		</linearGradient>
		<path class="st60" d="M299.3,88.7c0,0-3.5-8.8-12.3-8.9c0,0-5.1,2-6,5.9c0,0,1.9,14.2,4.1,20.8c2.2,6.6,10.1,5.7,10.1,5.7
			S302.2,101.7,299.3,88.7z"/>
		
			<linearGradient id="SVGID_54_" gradientUnits="userSpaceOnUse" x1="346.9636" y1="393.4524" x2="348.3246" y2="400.5424" gradientTransform="matrix(1 0 0 -1 0 518)">
			<stop  offset="0" style="stop-color:#E1616A"/>
			<stop  offset="1" style="stop-color:#FF8883"/>
		</linearGradient>
		<path class="st61" d="M333.1,117.6c0,0,2.9-0.2,4.2,0.7c1.3,0.9,5.9,5.4,11.7,6.6c5.8,1.2,9.7-3.7,10.9-4c1.2-0.3,2.6,1.5,2.6,1.5
			s-0.5-2-3.6-2.9c0,0-1.2,4.7-9.7,3.1c-8.4-1.6-12-5.3-12-5.3l-0.4-0.8C336.9,116.5,334.5,117,333.1,117.6z"/>
		
			<linearGradient id="SVGID_55_" gradientUnits="userSpaceOnUse" x1="334.647" y1="398.844" x2="334.647" y2="469.821" gradientTransform="matrix(1 0 0 -1 0 518)">
			<stop  offset="0" style="stop-color:#FFEADB"/>
			<stop  offset="0.9944" style="stop-color:#C27CB6"/>
		</linearGradient>
		<path class="st62" d="M320.7,74l0.1-0.9c0,0,8.4-14.8,25-15.2c16.6-0.4,20.4,10,20.4,10l3.1-4.7l-7-14.3l-48.9-0.8l-11.9,9.6
			L300,81.3l5.3,31l12.9,6.9l3.6-3.2c-1.3-10.4-9.1-19.9-9.1-19.9l5.6-3.9c0,0,14.5,7,22.8,4.9c0,0,6.3-18.3,5.9-31.9
			C347.1,65.1,325.7,68.3,320.7,74z"/>
		<path class="st63" d="M319.9,75c0,0,0.8-5.3,9.8-7.4c10-2.4,18.1-4.4,18.1-4.4s-1.8,5.8-5.1,8c0,0-10.6-0.4-15.9,0.8
			C321.5,73.3,319.9,75,319.9,75z"/>
		<path class="st63" d="M366.2,67.9c0,0-5.1,3.9-8.5,13.2c0,0,3.3-4.3,6.4-4.3c2.1,0,1.8,2.1,1.8,2.1S367.9,73.4,366.2,67.9z"/>
		
			<linearGradient id="SVGID_56_" gradientUnits="userSpaceOnUse" x1="331.199" y1="427.9335" x2="331.199" y2="441.9863" gradientTransform="matrix(1 0 0 -1 0 518)">
			<stop  offset="0" style="stop-color:#CF6074"/>
			<stop  offset="1" style="stop-color:#F37270"/>
		</linearGradient>
		<path class="st64" d="M323.3,90.1c0,0,0.5-11.2,11.5-14.1c0,0,3.9,5.1,4.3,10.8C339.1,86.8,333.3,85.7,323.3,90.1z"/>
		
			<linearGradient id="SVGID_57_" gradientUnits="userSpaceOnUse" x1="359.2653" y1="423.4679" x2="359.2653" y2="435.6946" gradientTransform="matrix(1 0 0 -1 0 518)">
			<stop  offset="0" style="stop-color:#CF6074"/>
			<stop  offset="1" style="stop-color:#FF817F"/>
		</linearGradient>
		<path class="st65" d="M354.7,94.5c0,0,0.9-8.9,6-12.2c0,0,3.5,2.6,3.1,10.1C363.8,92.4,360.8,91.3,354.7,94.5z"/>
		<path class="st66" d="M323.3,90.1c0,0,3.6,4.4,13.5,5.2c0,0,1.9-2.9,1.7-8.5C338.5,86.8,329.4,85.9,323.3,90.1z"/>
		<path class="st66" d="M354.7,94.5v1.3c0,0,1.5,3.2,7,3.7c0,0,1.8-2.8,1.9-7.2C363.6,92.3,360.1,91.5,354.7,94.5z"/>
		<path class="st67" d="M333.9,86.5c0,0-2.5,3.1-2.3,7.9c0,0,3.3,0.8,5.2,0.9c0,0,2.2-3,1.7-8.5C338.5,86.8,335.6,86.1,333.9,86.5z"
			/>
		<path class="st67" d="M359.9,92.5c0,0-1.4,1.5-1.7,6.2c0,0,2,0.9,3.5,0.9c0,0,2-2.8,1.9-7.2C363.6,92.3,362.2,91.8,359.9,92.5z"/>
		<path class="st63" d="M333.1,94.8c0,0-0.9-6.1,2.6-8.4l2.8,0.4c0,0,0.9,4.8-1.7,8.5C336.8,95.3,334,95,333.1,94.8z"/>
		<path class="st63" d="M361.2,92.2c0,0-1.3,2.7-1.9,6.9c0,0,1,0.4,2.4,0.5c0,0,1.9-2.4,1.9-7.2C363.6,92.3,362.1,91.9,361.2,92.2z"
			/>
		<path class="st68" d="M323.3,90.1c0,0,6.6-3.9,17.9-1.7l-2.1-1.6C339.1,86.8,331.1,84.3,323.3,90.1z"/>
		<path class="st68" d="M354.7,94.5c0,0,5.3-2.8,11.5-1.3l-2.6-1.9C363.6,91.3,359.5,90.7,354.7,94.5z"/>
		<path class="st10" d="M330.5,90.1c0,0,1.8-0.4,3.4,1.2C333.9,91.3,331.7,92,330.5,90.1z"/>
		<path class="st10" d="M357.1,95.3c0,0,2.8-0.5,3.8,0.7C360.9,96,359.4,97.1,357.1,95.3z"/>
		<path class="st69" d="M324,90.7c0,0,5.2,5.1,13.4,6.3l0.2-3l-0.8,1.3C336.8,95.3,328.9,94.8,324,90.7z"/>
		<path class="st69" d="M354.7,95.8c0,0,0.9,3.3,7.6,4.8l-0.2-1.6l-0.4,0.6C361.7,99.6,356.9,99,354.7,95.8z"/>
		<path class="st70" d="M341.2,109c0,0,2.5-0.5,7.1,0c4.6,0.5,9.8,1.8,12.6,0c0,0-3.8,3.8-7,4.3c-3.3,0.6-8.2-2.3-8.2-2.3l-2.2,0
			C343.5,111.1,341.9,110.3,341.2,109z"/>
		<path class="st71" d="M343.8,111.1c0,0,1.1-0.7,2.1-0.5c0.9,0.2,1.9,1.6,1.9,1.6S345.8,111,343.8,111.1z"/>
		<path class="st72" d="M360.9,109c1.2-1.2-5-12.2-8-12.7c-3-0.4-5.8,12.4-5.8,12.4s4.1,0.6,8.2,1.1
			C359.3,110.4,360.9,109,360.9,109z"/>
		
			<linearGradient id="SVGID_58_" gradientUnits="userSpaceOnUse" x1="360.4069" y1="416.349" x2="360.4069" y2="443.8743" gradientTransform="matrix(1 0 0 -1 0 518)">
			<stop  offset="0" style="stop-color:#FFEADB"/>
			<stop  offset="0.9944" style="stop-color:#C27CB6"/>
		</linearGradient>
		<path class="st73" d="M365.3,74.1c-1.7-0.2-7.6,7-7.6,7s-3.8,11.7-3,15.2c0.7,3.5,9.9,5.3,9.9,5.3l0.4-0.6v0
			c-0.5-1.1-0.9-2.3-1.1-3.5c-0.7-3.6,0.8-11.8,2-18.5c0,0,0.4-1.4,0.4-2.7C366.3,75.2,366.1,74.2,365.3,74.1z"/>
		
			<linearGradient id="SVGID_59_" gradientUnits="userSpaceOnUse" x1="333.1177" y1="359.8908" x2="333.1177" y2="493.4753" gradientTransform="matrix(1 0 0 -1 0 518)">
			<stop  offset="0" style="stop-color:#2E33A0"/>
			<stop  offset="1" style="stop-color:#0665A5"/>
		</linearGradient>
		<path class="st74" d="M365.1,121.7c-1.9-4-0.7-6-17.2-8.2c-23.3-3.1-25.3,4.1-29.3,3c-0.1,0-0.3-0.1-0.5-0.2
			c-4.3-1.7-14.4-11.6-14.7-25c-0.3-13.9,9.1-23.8,9.1-23.8c-3.4-2.8-4.7-11.1-1.1-14.6c3.7-3.5,9.9-2.7,25.2-1.1
			c15.3,1.6,15.3,0.7,15.3,0.7c4.9,1.2,7.6,5.8,8.4,7.2c0.2,0.3,0.2,0.5,0.2,0.5l1.9-1.8c5.1,7.4,4.2,15.5,4.2,15.5s8.4-17,7.4-19.4
			c-1.7-4.5-6.6-10.9-6.9-11.4l0,0c0,0-1.4-13-5.4-13c-4.1,0-21.4,3.9-21.4,3.9c1.9-4.5,1.6-9.6,1.6-9.6s0,0-0.1,0.1
			c-5.7,5.1-11.2,5.6-19,9.2c-3.9,1.8-5.8,3.5-7.3,5.3l-0.5,0.6l-0.6,0.7c-0.5,0.7-1.1,1.4-1.8,2.1c0,0-0.1,0.1-0.1,0.1c0,0,0,0,0,0
			c-0.6,0.7-1.4,1.4-2.3,2.1c-5.1,4.2-16.4,7-17.8,11.4c-1.4,4.4,1.7,10.4,3.3,16.7c1.6,6.2,0.9,11.7,0.9,11.7s5.4,6.9,3.6,17.1
			c-1.6,9.1-5.1,10.6-5.1,10.6c-2.4,5-1.3,9.7-1.3,9.7c5,19.9,25.7,31.7,25.7,31.7c18.4,6.8,30.5,3.9,30.5,3.9s0,0,0,0
			c13.4-8.7,18-37.6,18.2-38.9C368.1,118.9,365.6,122.8,365.1,121.7z M356.8,140.1c-3.2-0.5-3.9-8.7-5-9.8c-1.1-1.1-7-0.6-7-0.6
			s-5.4,6.1-7.6,6.3c-2.2,0.2-13.7-4.5-11.2-11.5c2.5-7,11.2-7.9,11.2-7.9s4.5,3.8,11.3,4.2c6.8,0.4,9.2-0.8,10-1.2
			c0.8-0.4,5.2,1.6,5.1,7.7C363.6,131.6,360.1,140.6,356.8,140.1z"/>
		<path class="st75" d="M356,98.8c0,0,5.8,7.2,5.3,10c-0.6,3-7.4,4.6-7.4,4.6s5.4-1.9,6.5-4.6C360.4,108.8,359,103.3,356,98.8z"/>
		
			<linearGradient id="SVGID_60_" gradientUnits="userSpaceOnUse" x1="368.2275" y1="444.0123" x2="368.2275" y2="474.8286" gradientTransform="matrix(1 0 0 -1 0 518)">
			<stop  offset="0" style="stop-color:#FFEADB"/>
			<stop  offset="0.9944" style="stop-color:#8860C7"/>
		</linearGradient>
		<path class="st76" d="M366.6,74c0,0,0.9-8.1-4.2-15.5c4.1-7.4,4.7-15.3,4.7-15.3l0,0c1.4,3.4,2.2,10.1,2.2,10.1l4.7,1.2
			C375,57,366.6,74,366.6,74z"/>
		
			<linearGradient id="SVGID_61_" gradientUnits="userSpaceOnUse" x1="326.2056" y1="359.8908" x2="326.2056" y2="493.4753" gradientTransform="matrix(1 0 0 -1 0 518)">
			<stop  offset="0" style="stop-color:#CCC2DB"/>
			<stop  offset="0.9944" style="stop-color:#8860C7"/>
		</linearGradient>
		<path class="st77" d="M360.3,59.7c-0.8-1.5-3.6-6-8.4-7.2c0,0,0,0.9-15.3-0.7c-15.3-1.6-21.5-2.4-25.2,1.1
			c-3.7,3.5-2.3,11.8,1.1,14.6c0,0-9.3,9.9-9.1,23.8c0.3,13.4,10.4,23.3,14.7,25l-0.2,1.5c0,0,0.8,30.7,8.2,33.1
			c7.5,2.4,22.9,1.2,24.4,2.6c1.4,1.4-0.2,3.7-0.3,3.9c0,0,0,0,0,0s-12.1,3-30.5-3.9c0,0-20.7-11.8-25.7-31.7c0,0-1.2-4.7,1.3-9.7
			c0,0,3.5-1.5,5.1-10.6c1.8-10.1-3.6-17.1-3.6-17.1s0.7-5.5-0.9-11.7c-1.6-6.2-4.7-12.3-3.3-16.7c8.7,1.4,14.3-3.2,14.3-3.2
			s1.5-2.1,8.2-3.2c6.7-1.1,33.6,1.6,33.6,1.6s-2.7-2.2-8.4-3.7c-5.4-1.4-23.7,0.2-25.7,0.4c2.1-0.4,22.9-3.9,25.3-3.2
			c2.5,0.7,11.5,4.9,11.5,4.9c-0.8-4.1-8.9-14.1-8.9-14.1s-11.4,0.2-18.8,1.8c-6.6,1.4-10.3,4.4-11,5.1l1.8-2.1l0.6-0.7l0.5-0.6
			l2.6-0.4l13-5.3c4.4-2.3,10-8.1,10.7-8.8c0,0,0.1-0.1,0.1-0.1s0.3,5.1-1.6,9.6c11-1.4,14.7-0.7,14.7-0.7
			C360.1,40.5,360.3,59.7,360.3,59.7z"/>
		
			<linearGradient id="SVGID_62_" gradientUnits="userSpaceOnUse" x1="335.1686" y1="359.9254" x2="335.1686" y2="365.6654" gradientTransform="matrix(1 0 0 -1 0 518)">
			<stop  offset="0" style="stop-color:#776D7E"/>
			<stop  offset="1" style="stop-color:#9D68C2"/>
		</linearGradient>
		<path class="st78" d="M319.6,153.6c0,0,6.8-1.6,16.9-1.2c10.2,0.4,16.1,0.5,13.5,5.1C350.1,157.5,337.3,160.3,319.6,153.6z"/>
		
			<linearGradient id="SVGID_63_" gradientUnits="userSpaceOnUse" x1="352.0215" y1="483.8919" x2="352.0215" y2="488.1551" gradientTransform="matrix(1 0 0 -1 0 518)">
			<stop  offset="0" style="stop-color:#1F77D1"/>
			<stop  offset="1" style="stop-color:#0686C9"/>
		</linearGradient>
		<path class="st79" d="M355.1,33.4c0,0,6.2-2.4,8.7-2c0,0-1-1.3-2-1.6c-1-0.3-21.4,4.3-21.4,4.3S353,32.6,355.1,33.4z"/>
		
			<linearGradient id="SVGID_64_" gradientUnits="userSpaceOnUse" x1="324.8395" y1="469.8495" x2="324.8395" y2="482.4573" gradientTransform="matrix(1 0 0 -1 0 518)">
			<stop  offset="0" style="stop-color:#1F77D1"/>
			<stop  offset="1" style="stop-color:#0686C9"/>
		</linearGradient>
		<path class="st80" d="M342.5,35.7c0,0-0.5,6.7-2.6,9.2l-25.3,3.2l-7.4-1.3c0,0,2.9-1.2,6-4.9C316.4,38.3,332.8,34.7,342.5,35.7z"
			/>
		
			<linearGradient id="SVGID_65_" gradientUnits="userSpaceOnUse" x1="370.552" y1="463.458" x2="370.552" y2="474.8286" gradientTransform="matrix(1 0 0 -1 0 518)">
			<stop  offset="0" style="stop-color:#1F77D1"/>
			<stop  offset="1" style="stop-color:#0686C9"/>
		</linearGradient>
		<path class="st81" d="M367.1,43.2c0,0,2.1,6.6,2.2,10.1l4.7,1.2C374,54.5,372.6,49.5,367.1,43.2z"/>
		
			<linearGradient id="SVGID_66_" gradientUnits="userSpaceOnUse" x1="295.2833" y1="413.4263" x2="280.7401" y2="431.2557" gradientTransform="matrix(1 0 0 -1 0 518)">
			<stop  offset="0" style="stop-color:#FFEADB"/>
			<stop  offset="0.9944" style="stop-color:#B060F4"/>
		</linearGradient>
		<path class="st82" d="M298.3,100.6c0,0-1.8-8.5-6.1-12.7c-4.4-4.2-9.3-2.9-9.3-2.9s1.4,15.8,2.8,19.6c1.4,3.9,3.6,4.9,3.6,4.9
			s-3-2.7-3.5-7.9c-0.4-5.2-0.5-12.6,0.6-13.5c1.2-0.9,5.8,2.6,5.8,2.6s-1.5,1.8-2.3,6.4c-0.9,4.7,2.4,8,3.6,8
			c1.2-0.1-0.1-5.4,0.1-6.9C293.7,96.7,296.5,97,298.3,100.6z"/>
		
			<linearGradient id="SVGID_67_" gradientUnits="userSpaceOnUse" x1="296.8052" y1="415.7261" x2="289.6532" y2="424.4947" gradientTransform="matrix(1 0 0 -1 0 518)">
			<stop  offset="0" style="stop-color:#FFEADB"/>
			<stop  offset="0.9944" style="stop-color:#B060F4"/>
		</linearGradient>
		<path class="st83" d="M294,90c0,0-4.8,3.1-4.2,9.5c0.5,6.4,4.2,6.1,4.2,4.8c0-1.3-0.7-4.8-0.3-6.8c0.4-2,3.5-1.1,3.5-1.1
			S295,91.4,294,90z"/>
		<path class="st84" d="M368.3,118.5c0,0-5.9,26.9-18.2,38.9C350.1,157.5,364.1,152,368.3,118.5z"/>
		<path class="st84" d="M361.7,29.9c0,0,3.1,2.4,3.7,10.8c0.6,8.4-3.1,17.8-3.1,17.8s4.7-7,5.1-14.7C368,36.1,364.2,30.8,361.7,29.9
			z"/>
		
			<linearGradient id="SVGID_68_" gradientUnits="userSpaceOnUse" x1="324.004" y1="468.7216" x2="348.659" y2="468.7216" gradientTransform="matrix(1 0 0 -1 0 518)">
			<stop  offset="0" style="stop-color:#1F77D1"/>
			<stop  offset="1" style="stop-color:#0686C9"/>
		</linearGradient>
		<path class="st85" d="M324,47.5c0,0,7.2,2.5,15.1,3.2c7.9,0.7,9.5,0.9,9.5,0.9s-3.2-3.1-9.9-4C331.9,46.6,324,47.5,324,47.5z"/>
		
			<linearGradient id="SVGID_69_" gradientUnits="userSpaceOnUse" x1="358.768" y1="395.0581" x2="366.249" y2="395.0581" gradientTransform="matrix(1 0 0 -1 0 518)">
			<stop  offset="0" style="stop-color:#1F77D1"/>
			<stop  offset="1" style="stop-color:#0686C9"/>
		</linearGradient>
		<path class="st86" d="M358.8,119.1c0,0,3.5,0,4.8,4.3c1.1,3.5,1.4,6.4,1.4,6.4l1.2-4.7c0,0-1.6-6-3.3-7.4c-1.2-1-3.3-2-4.2-1.7
			L358.8,119.1z"/>
		
			<linearGradient id="SVGID_70_" gradientUnits="userSpaceOnUse" x1="349.545" y1="400.6084" x2="357.611" y2="400.6084" gradientTransform="matrix(1 0 0 -1 0 518)">
			<stop  offset="0" style="stop-color:#1F77D1"/>
			<stop  offset="1" style="stop-color:#0686C9"/>
		</linearGradient>
		<path class="st87" d="M349.5,114.8l0.6,5.1c0,0,4.2,0.3,7-0.8l0.5-3.1C357.6,116,352.2,114.7,349.5,114.8z"/>
		<path class="st84" d="M368.7,181.2c0,0,24.6,17.9,27.8,24.1c3.2,6.2,4.5,25.5,8.8,33.9c0,0-3-13.7-5-24.5s-1.6-10.9-2.7-13.5
			C396.4,198.6,378,185.9,368.7,181.2z"/>
		<path class="st84" d="M364.3,281.1c0,0-11.8,50.7-11.3,54.1c0.5,3.4,8.2,10.4,8.6,12.3c0,0-5.9,7.8-5.6,9.6
			c0.3,1.7,10.3,12.7,10,16.1c-0.1,1-6.6,11.7-6.6,11.7s7.3-10.5,7.7-12.2c0.4-1.7-9-15.7-9.3-17.2c-0.7-3.7,4.7-6.4,4.8-8.8
			c0.2-2.4-7.3-8.4-7.3-12.3C355.3,330.5,364.3,281.1,364.3,281.1z"/>
		<path class="st84" d="M366.7,402c0,0,25.6,58,34.4,115.9C401.1,517.9,399.6,461.4,366.7,402z"/>
		<path class="st72" d="M204.2,169.5c0,0-6.6-1.4-9.4-7.2c-2.8-5.8-1-14.2-1-14.2s5.2,10,7.8,13.4C204.3,165,205,168.8,204.2,169.5z
			"/>
		<path class="st88" d="M408.8,139.3l4.6,131c0.2,5.2,4.5,9.3,9.7,9.3h225.8c5.2,0,9.5-4.2,9.7-9.4l3.2-132.5
			c0.1-5.4-4.3-9.9-9.7-9.9l-233.5,1.5C413,129.4,408.6,133.9,408.8,139.3z"/>
		<path class="st89" d="M648.8,279.9H423.1c-5.4,0-9.8-4.2-10-9.7l-4.6-131c-0.1-2.7,0.9-5.3,2.8-7.3c1.9-2,4.4-3.1,7.2-3.1
			l233.5-1.5c2.7,0,5.3,1,7.2,3c1.9,2,2.9,4.5,2.9,7.2l-3.2,132.5C658.7,275.7,654.3,279.9,648.8,279.9z M652,128.2
			C652,128.2,651.9,128.2,652,128.2l-233.6,1.5c-2.5,0-4.9,1-6.7,2.9c-1.8,1.8-2.7,4.2-2.6,6.8l4.6,131c0.2,5,4.3,9,9.3,9h225.8
			c5,0,9.2-4.1,9.3-9.1l3.2-132.5c0.1-2.5-0.9-4.9-2.7-6.7C656.9,129.1,654.5,128.2,652,128.2z"/>
		
			<linearGradient id="SVGID_71_" gradientUnits="userSpaceOnUse" x1="409.0181" y1="381.0596" x2="661.7894" y2="381.0596" gradientTransform="matrix(1 0 0 -1 0 518)">
			<stop  offset="0" style="stop-color:#9D68C2"/>
			<stop  offset="1" style="stop-color:#AEC2FF"/>
		</linearGradient>
		<path class="st90" d="M409.2,146h252.2l0.4-6.9c0.4-6.1-4.5-11.2-10.7-11.2l-233.4,1.8c-4.9,0-8.8,4.1-8.7,8.9L409.2,146z"/>
		
			<linearGradient id="SVGID_72_" gradientUnits="userSpaceOnUse" x1="460.4445" y1="285.65" x2="460.4445" y2="361.849" gradientTransform="matrix(1 0 0 -1 0 518)">
			<stop  offset="0" style="stop-color:#CCEDFF"/>
			<stop  offset="1" style="stop-color:#9D68C2"/>
		</linearGradient>
		<path class="st91" d="M421.8,156.6v75.8H499v-76.2L421.8,156.6z"/>
		
			<linearGradient id="SVGID_73_" gradientUnits="userSpaceOnUse" x1="590.446" y1="322.801" x2="590.446" y2="356.357" gradientTransform="matrix(1 0 0 -1 0 518)">
			<stop  offset="0" style="stop-color:#CCEDFF"/>
			<stop  offset="1" style="stop-color:#9D68C2"/>
		</linearGradient>
		<path class="st92" d="M607.2,161.6h-33.6v33.6h33.6V161.6z"/>
		
			<linearGradient id="SVGID_74_" gradientUnits="userSpaceOnUse" x1="630.0635" y1="322.801" x2="630.0635" y2="356.357" gradientTransform="matrix(1 0 0 -1 0 518)">
			<stop  offset="0" style="stop-color:#CCEDFF"/>
			<stop  offset="1" style="stop-color:#9D68C2"/>
		</linearGradient>
		<path class="st93" d="M646.9,161.6h-33.6v33.6h33.6V161.6z"/>
		
			<linearGradient id="SVGID_75_" gradientUnits="userSpaceOnUse" x1="550.158" y1="322.801" x2="550.158" y2="356.357" gradientTransform="matrix(1 0 0 -1 0 518)">
			<stop  offset="0" style="stop-color:#CCEDFF"/>
			<stop  offset="1" style="stop-color:#9D68C2"/>
		</linearGradient>
		<path class="st94" d="M566.9,161.6h-33.6v33.6h33.6V161.6z"/>
		<path class="st95" d="M646.9,214.8H561v8h85.9V214.8z"/>
		<path class="st95" d="M646.9,227H539.5v2.5h107.4V227z"/>
		<path class="st95" d="M561.1,199.5h-20.5v2.5h20.5V199.5z"/>
		<path class="st95" d="M600.7,199.5h-20.5v2.5h20.5V199.5z"/>
		<path class="st95" d="M640.3,199.5h-20.5v2.5h20.5V199.5z"/>
		<path class="st95" d="M567.9,231h-34.5v2.5h34.5V231z"/>
		<path class="st95" d="M646.9,235H539.5v2.5h107.4V235z"/>
		<path class="st95" d="M646.9,239H533.4v2.5h113.5V239z"/>
		<path class="st95" d="M646.9,243H533.4v2.5h113.5V243z"/>
		<path class="st95" d="M646.9,259.2H539.5v2.5h107.4V259.2z"/>
		<path class="st95" d="M646.9,263.2H533.4v2.5h113.5V263.2z"/>
		<path class="st95" d="M646.9,267.2H533.4v2.5h113.5V267.2z"/>
		<path class="st95" d="M642.3,247H533.4v2.5h108.9V247z"/>
		<path class="st95" d="M646.9,251H539.5v2.5h107.4V251z"/>
		<path class="st95" d="M625.3,255h-92v2.5h92V255z"/>
		<path class="st96" d="M443.5,217.1c-12.1,0-22-9.8-22-21.9c0-12.1,9.9-21.9,22-21.9c12.1,0,22,9.8,22,21.9
			C465.4,207.3,455.6,217.1,443.5,217.1z M443.5,174.7c-11.3,0-20.5,9.2-20.5,20.5c0,11.3,9.2,20.5,20.5,20.5
			c11.3,0,20.5-9.2,20.5-20.5C464,183.9,454.8,174.7,443.5,174.7z"/>
		<path class="st10" d="M443.5,207.1c6.6,0,11.9-5.3,11.9-11.9c0-6.6-5.3-11.9-11.9-11.9c-6.6,0-11.9,5.3-11.9,11.9
			C431.5,201.8,436.9,207.1,443.5,207.1z"/>
		<path class="st96" d="M499,178.1c-12.1,0-22-9.8-22-21.9c0-12.1,9.9-21.9,22-21.9c12.1,0,22,9.8,22,21.9
			C521,168.3,511.2,178.1,499,178.1z M499,135.6c-11.3,0-20.5,9.2-20.5,20.5c0,11.3,9.2,20.5,20.5,20.5c11.3,0,20.5-9.2,20.5-20.5
			C519.6,144.8,510.4,135.6,499,135.6z"/>
		<path class="st10" d="M510.1,157.9c1-6.1-3.2-11.9-9.4-12.8c-6.1-1-11.9,3.2-12.8,9.3c-1,6.1,3.2,11.9,9.4,12.8
			C503.4,168.2,509.1,164,510.1,157.9z"/>
		<path class="st10" d="M418,135.7l1.6-2.4l8.7,7.6l-1.3,1.9L418,135.7z"/>
		<path class="st10" d="M428.5,135.7l-1.6-2.4l-8.7,7.6l1.3,1.9L428.5,135.7z"/>
		<path class="st10" d="M655.3,134.9h-77.7v3.9h77.7V134.9z"/>
		
			<linearGradient id="SVGID_76_" gradientUnits="userSpaceOnUse" x1="188.977" y1="405.264" x2="188.977" y2="440.3884" gradientTransform="matrix(1 0 0 -1 0 518)">
			<stop  offset="0" style="stop-color:#D93DE3"/>
			<stop  offset="1" style="stop-color:#FF6DBA"/>
		</linearGradient>
		<path class="st97" d="M168.5,78.7v33.7l40.3,0.3l0.5-35.1L168.5,78.7z"/>
		
			<linearGradient id="SVGID_77_" gradientUnits="userSpaceOnUse" x1="210.4635" y1="405.264" x2="210.4635" y2="440.3884" gradientTransform="matrix(1 0 0 -1 0 518)">
			<stop  offset="0" style="stop-color:#A242EA"/>
			<stop  offset="1" style="stop-color:#FE117E"/>
		</linearGradient>
		<path class="st98" d="M209.4,77.6L212,82l-1.3,30.7l-1.9,0L209.4,77.6z"/>
		<path class="st10" d="M175.7,90.1l3.7-5.4l20.1,16.9l-3.1,4.1L175.7,90.1z"/>
		<path class="st10" d="M200.1,90.1l-3.7-5.4l-20.1,16.9l3.1,4.1L200.1,90.1z"/>
		
			<linearGradient id="SVGID_78_" gradientUnits="userSpaceOnUse" x1="182.8787" y1="35.1973" x2="201.8637" y2="186.4576" gradientTransform="matrix(1 0 0 -1 0 518)">
			<stop  offset="0" style="stop-color:#067EFF"/>
			<stop  offset="1" style="stop-color:#3E37A0"/>
		</linearGradient>
		<path class="st99" d="M262.6,475.4h-138c-6.1,0-11.2-4.9-11.3-11l-2.6-113.1c-0.1-6.3,5-11.6,11.3-11.6h143.7
			c6.4,0,11.5,5.3,11.3,11.6l-3.1,113.1C273.8,470.5,268.8,475.4,262.6,475.4z"/>
		<path class="st100" d="M262.6,475.8h-138c-6.3,0-11.5-5.1-11.7-11.4l-2.6-113.1c-0.1-3.2,1.1-6.1,3.3-8.4c2.2-2.3,5.2-3.5,8.3-3.5
			h143.7c3.2,0,6.1,1.3,8.4,3.5c2.2,2.3,3.4,5.3,3.3,8.4l-3.1,113.1C274.1,470.8,269,475.8,262.6,475.8z M122,340
			c-3,0-5.8,1.2-7.8,3.3c-2.1,2.1-3.2,4.9-3.1,7.9l2.6,113.2c0.1,5.9,5,10.7,11,10.7h138c6,0,10.8-4.7,11-10.6l3.1-113.2
			c0.1-3-1-5.8-3.1-7.9c-2.1-2.1-4.9-3.3-7.9-3.3H122z"/>
		<path class="st10" d="M220.5,362.8h-72.6v3.1h72.6V362.8z"/>
		<path class="st10" d="M184.2,370.4h-36.3v3.1h36.3V370.4z"/>
		<path class="st10" d="M184.2,376.7h-36.3v3.1h36.3V376.7z"/>
		<path class="st10" d="M217.2,376.7h-28.9v3.1h28.9V376.7z"/>
		<path class="st10" d="M206.5,383h-58.5v3.1h58.5V383z"/>
		<path class="st10" d="M168.8,389.3h-20.8v3.1h20.8V389.3z"/>
		<path class="st10" d="M209.1,408.2h-36v3.1h36V408.2z"/>
		<path class="st10" d="M213.2,395.6h-65.3v3.1h65.3V395.6z"/>
		<path class="st10" d="M198.2,401.9h-50.2v3.1h50.2V401.9z"/>
		<path class="st10" d="M171.6,408.2h-23.6v3.1h23.6V408.2z"/>
		<path class="st10" d="M184.2,414.5h-36.3v3.1h36.3V414.5z"/>
		<path class="st10" d="M158.4,420.8h-10.4v3.1h10.4V420.8z"/>
		<path class="st10" d="M200.4,420.8h-37.8v3.1h37.8V420.8z"/>
		<path class="st10" d="M209.1,426.9h-36v3.1h36V426.9z"/>
		<path class="st10" d="M171.6,426.9h-23.6v3.1h23.6V426.9z"/>
		<path class="st10" d="M184.2,433.2h-36.3v3.1h36.3V433.2z"/>
		<path class="st10" d="M158.4,439.5h-10.4v3.1h10.4V439.5z"/>
		<path class="st10" d="M200.4,439.5h-37.8v3.1h37.8V439.5z"/>
		
			<linearGradient id="SVGID_79_" gradientUnits="userSpaceOnUse" x1="626.6655" y1="409.073" x2="626.6655" y2="421.8271" gradientTransform="matrix(1 0 0 -1 0 518)">
			<stop  offset="0" style="stop-color:#459FFF"/>
			<stop  offset="1" style="stop-color:#A96DFF"/>
		</linearGradient>
		<path class="st101" d="M633,102.6c0,3.5-2.9,6.4-6.4,6.4c-3.5,0-6.4-2.9-6.4-6.4c0-3.5,2.9-6.4,6.4-6.4
			C630.2,96.2,633,99,633,102.6z"/>
		
			<linearGradient id="SVGID_80_" gradientUnits="userSpaceOnUse" x1="27.0676" y1="259.67" x2="27.0676" y2="275.535" gradientTransform="matrix(1 0 0 -1 0 518)">
			<stop  offset="0" style="stop-color:#459FFF"/>
			<stop  offset="1" style="stop-color:#A96DFF"/>
		</linearGradient>
		<path class="st102" d="M35,250.4c0,4.4-3.6,7.9-7.9,7.9s-7.9-3.6-7.9-7.9c0-4.4,3.6-7.9,7.9-7.9S35,246,35,250.4z"/>
		
			<linearGradient id="SVGID_81_" gradientUnits="userSpaceOnUse" x1="645.41" y1="409.073" x2="645.41" y2="421.8271" gradientTransform="matrix(1 0 0 -1 0 518)">
			<stop  offset="0" style="stop-color:#B31A8F"/>
			<stop  offset="1" style="stop-color:#FE117E"/>
		</linearGradient>
		<path class="st103" d="M645.4,108.9c3.5,0,6.4-2.9,6.4-6.4c0-3.5-2.9-6.4-6.4-6.4c-3.5,0-6.4,2.9-6.4,6.4
			C639,106.1,641.9,108.9,645.4,108.9z"/>
		
			<linearGradient id="SVGID_82_" gradientUnits="userSpaceOnUse" x1="234.0055" y1="367.114" x2="234.0055" y2="376.131" gradientTransform="matrix(1 0 0 -1 0 518)">
			<stop  offset="0" style="stop-color:#B31A8F"/>
			<stop  offset="1" style="stop-color:#FE117E"/>
		</linearGradient>
		<path class="st104" d="M234,150.9c2.5,0,4.5-2,4.5-4.5c0-2.5-2-4.5-4.5-4.5c-2.5,0-4.5,2-4.5,4.5
			C229.5,148.9,231.5,150.9,234,150.9z"/>
		
			<linearGradient id="SVGID_83_" gradientUnits="userSpaceOnUse" x1="536.1665" y1="168.177" x2="536.1665" y2="177.194" gradientTransform="matrix(1 0 0 -1 0 518)">
			<stop  offset="0" style="stop-color:#8642A0"/>
			<stop  offset="1" style="stop-color:#6456C0"/>
		</linearGradient>
		<path class="st105" d="M536.2,349.8c2.5,0,4.5-2,4.5-4.5c0-2.5-2-4.5-4.5-4.5c-2.5,0-4.5,2-4.5,4.5
			C531.7,347.8,533.7,349.8,536.2,349.8z"/>
		
			<linearGradient id="SVGID_84_" gradientUnits="userSpaceOnUse" x1="67.1559" y1="123.708" x2="67.1559" y2="131.768" gradientTransform="matrix(1 0 0 -1 0 518)">
			<stop  offset="0" style="stop-color:#8642A0"/>
			<stop  offset="1" style="stop-color:#6456C0"/>
		</linearGradient>
		<path class="st106" d="M67.2,394.3c2.2,0,4-1.8,4-4c0-2.2-1.8-4-4-4c-2.2,0-4,1.8-4,4C63.1,392.5,64.9,394.3,67.2,394.3z"/>
		
			<linearGradient id="SVGID_85_" gradientUnits="userSpaceOnUse" x1="101.006" y1="167.307" x2="101.006" y2="233.89" gradientTransform="matrix(1 0 0 -1 0 518)">
			<stop  offset="0" style="stop-color:#D906E3"/>
			<stop  offset="1" style="stop-color:#FF6DF9"/>
		</linearGradient>
		<path class="st107" d="M135.9,350.7H66.2c-5.6,0-10.2-4.4-10.4-10l-1.5-45.8c-0.2-5.9,4.5-10.7,10.4-10.7h72.6
			c5.9,0,10.6,4.9,10.4,10.7l-1.4,45.8C146.1,346.2,141.5,350.7,135.9,350.7z"/>
		<path class="st108" d="M135.9,351H66.2c-5.8,0-10.6-4.6-10.8-10.4L54,294.9c-0.1-2.9,1-5.7,3-7.8c2-2.1,4.8-3.3,7.7-3.3h72.6
			c2.9,0,5.7,1.2,7.7,3.3c2,2.1,3.1,4.9,3,7.8l-1.4,45.8C146.5,346.5,141.8,351,135.9,351z M64.7,284.5c-2.7,0-5.3,1.1-7.2,3.1
			c-1.9,2-2.9,4.6-2.8,7.3l1.5,45.8c0.2,5.4,4.6,9.7,10,9.7h69.7c5.5,0,9.9-4.3,10-9.7l1.4-45.8c0.1-2.7-0.9-5.3-2.8-7.3
			c-1.9-2-4.5-3.1-7.2-3.1H64.7z"/>
		<path class="st109" d="M84.8,300.6l-17.2,19.9l17.5,14.8v-7.6L75,318.9l9.4-10.6L84.8,300.6z"/>
		<path class="st109" d="M115,301.5l17.2,19.9l-17.5,14.8v-7.7l10.1-8.7l-11.2-11.9L115,301.5z"/>
		<path class="st109" d="M88.6,335.3l15-32.9h7l-16.9,32.9H88.6z"/>
		
			<linearGradient id="SVGID_86_" gradientUnits="userSpaceOnUse" x1="560.9708" y1="73.074" x2="560.9708" y2="156.35" gradientTransform="matrix(1 0 0 -1 0 518)">
			<stop  offset="0" style="stop-color:#D906E3"/>
			<stop  offset="1" style="stop-color:#FF6DF9"/>
		</linearGradient>
		<path class="st110" d="M604.7,444.9h-87.2c-7,0-12.8-5.5-13-12.6l-1.9-57.3c-0.2-7.3,5.6-13.4,13-13.4h90.8
			c7.3,0,13.2,6.1,13,13.4l-1.8,57.3C617.4,439.3,611.7,444.9,604.7,444.9z"/>
		<path class="st108" d="M604.6,445.3h-87.2c-7.3,0-13.1-5.7-13.4-12.9l-1.9-57.3c-0.1-3.7,1.2-7.1,3.8-9.7c2.5-2.6,6-4.1,9.6-4.1
			h90.8c3.6,0,7.1,1.4,9.6,4.1c2.5,2.6,3.9,6.1,3.8,9.7l-1.8,57.3C617.8,439.6,611.9,445.3,604.6,445.3z M515.6,362
			c-3.5,0-6.7,1.4-9.1,3.9c-2.4,2.5-3.7,5.8-3.6,9.2l1.9,57.3c0.2,6.8,5.8,12.2,12.6,12.2h87.2c6.9,0,12.4-5.4,12.6-12.3l1.8-57.3
			c0.1-3.5-1.2-6.7-3.6-9.2c-2.4-2.5-5.6-3.8-9.1-3.8H515.6z"/>
		<path class="st111" d="M599.8,370.9H520v47.4h79.8V370.9z"/>
		<path class="st109" d="M552.9,382.6v23.9l20.4-13L552.9,382.6z"/>
		<path class="st111" d="M599.8,427H520v4.3h79.8V427z"/>
		<path class="st109" d="M540.7,427H520v4.3h20.7V427z"/>
		
			<linearGradient id="SVGID_87_" gradientUnits="userSpaceOnUse" x1="452.836" y1="119.6213" x2="461.8175" y2="180.3038" gradientTransform="matrix(1 0 0 -1 0 518)">
			<stop  offset="0" style="stop-color:#1852A0"/>
			<stop  offset="1" style="stop-color:#067ED3"/>
		</linearGradient>
		<path class="st112" d="M461.5,355.9l-4.2,11.9C459.7,361.2,463,356.9,461.5,355.9z M457.4,367.8l-4.2,11.9
			C454.2,379.4,455.1,374.4,457.4,367.8z M461.5,355.9l-4.2,11.9C459.7,361.2,463,356.9,461.5,355.9z M457.4,367.8l-4.2,11.9
			C454.2,379.4,455.1,374.4,457.4,367.8z M469.4,378.1l4,2.3l4.4-11.9l-4.7-0.8c0.1-0.4,0.2-0.9,0.2-1.3c0.3-2,0.5-4,0.4-5.9
			l4.9-3.1l-2.2-10.5l-4.7,4.5c-0.7-1.3-1.5-2.5-2.4-3.5c-0.3-0.3-0.5-0.5-0.8-0.8l2.9-6.6l-7.6-2.5l-1.8,6.7
			c-1.7,0-3.4,0.4-5.2,1.2l-0.8-6.3l-8.4,6.4l1.9,5.6c-1.5,1.7-2.9,3.7-4.1,6l-4.1-2.3l-4.4,11.9l4.7,0.8c-0.5,2.5-0.7,5-0.6,7.3
			l-4.9,3.1l2.2,10.5l4.7-4.5c0.8,1.7,1.9,3.2,3.2,4.3l-2.9,6.6l7.5,2.9l1.2-4.2l0.8-2.9c1.7,0,3.5-0.4,5.2-1.2l0.8,6.3l8.4-6.4
			l-1.9-5.6c1.2-1.4,2.3-2.9,3.3-4.6C468.9,379.1,469.1,378.6,469.4,378.1z M457.4,367.8c-2.3,6.6,0,13.4-4.2,11.9
			c-4.2-1.5-5.7-8-3.4-14.6c2.3-6.6,7.6-10.7,11.7-9.3C465.7,357.4,459.7,361.2,457.4,367.8z M461.5,355.9l-4.2,11.9
			C459.7,361.2,463,356.9,461.5,355.9z M457.4,367.8l-4.2,11.9C454.2,379.4,455.1,374.4,457.4,367.8z"/>
		
			<linearGradient id="SVGID_88_" gradientUnits="userSpaceOnUse" x1="446.1548" y1="121.2224" x2="462.3712" y2="181.4881" gradientTransform="matrix(1 0 0 -1 0 518)">
			<stop  offset="0" style="stop-color:#1852A0"/>
			<stop  offset="1" style="stop-color:#067ED3"/>
		</linearGradient>
		<path class="st113" d="M473.5,380.4l4.4-11.9l-4.5-2.1l-0.7-0.3l0.5-6.6l4.9-2.4l-1.6-10.2l-10.8-3.5l2,4.7l3.8-7.6l-7.6-2.5
			l-3.1-1l-7.5-2.9l-1.4,5.1l-6.6-3.1l-8.4,6.4l2.6,6.9l-7.9,21.8l-3.9,14.1l7.5,0.8l-2.4,5.6l7.5,2.9l10.8,3.5l-1.7-3.5l-1.1-2.1
			l4,1.3l6.8,2.2l8.4-6.4l-5.2-6.1l6.6-4L473.5,380.4z M449.8,365.2c2.3-6.6,7.6-10.7,11.7-9.3l-4.2,11.9l-4.2,11.9
			C449,378.2,447.5,371.7,449.8,365.2z"/>
		
			<linearGradient id="SVGID_89_" gradientUnits="userSpaceOnUse" x1="441.8324" y1="123.1795" x2="451.4029" y2="184.2232" gradientTransform="matrix(1 0 0 -1 0 518)">
			<stop  offset="0" style="stop-color:#188DC1"/>
			<stop  offset="1" style="stop-color:#06BFE7"/>
		</linearGradient>
		<path class="st114" d="M462.7,376.9l4.4-11.9l-4.7-0.8c0.5-2.5,0.7-5,0.6-7.2l4.9-3.1l-2.2-10.5l-4.7,4.5
			c-0.8-1.7-1.9-3.2-3.2-4.3l2.9-6.6l-7.5-2.9l-1.9,7.1c-1.7,0-3.5,0.4-5.2,1.2l-0.8-6.3l-8.4,6.3l1.9,5.6c-1.5,1.7-2.9,3.7-4.1,6
			l-4.1-2.3l-4.4,11.9l4.7,0.8c-0.5,2.5-0.7,5-0.6,7.2l-4.9,3.1l2.2,10.5l4.7-4.5c0.8,1.7,1.9,3.2,3.2,4.3l-2.9,6.6l7.5,2.9l1.9-7.1
			c1.7,0,3.5-0.4,5.2-1.2l0.8,6.3l8.4-6.3l-1.9-5.6c1.5-1.7,2.9-3.7,4.1-6L462.7,376.9z M442.4,376.2c-4.2-1.5-5.7-8-3.4-14.6
			s7.6-10.7,11.8-9.3c4.2,1.5,5.7,8,3.4,14.6C451.9,373.5,446.6,377.7,442.4,376.2z"/>
		<path class="st115" d="M478.6,357.4l-10.8-3.5l-4.9,3.1l10.8,3.5L478.6,357.4z"/>
		<path class="st116" d="M467.2,389.7l-10.8-3.5l-1.9-5.6l10.8,3.5L467.2,389.7z"/>
		<path class="st115" d="M457.7,343.6l5.9,1.7l2-1.9l3.9,1.3l1.8-4.2l-10.8-3.5L457.7,343.6z"/>
		<path class="st115" d="M442.1,387.4l5.6,2.3l-0.5-3.6C447.2,386.2,444.2,387.8,442.1,387.4z"/>
		<path class="st115" d="M442.9,355.2l9.5,5c0,0,1.4-1.8,2.4-2.6C454.9,357.6,452.4,347.1,442.9,355.2z"/>
		<path class="st117" d="M224.8,0l9.2,18.3l-6.1,2.8l-8.6-16.8L224.8,0z"/>
		<path class="st118" d="M18.6,427.1l8.5,9.3l3.3-3.8l-8-8.8L18.6,427.1z"/>
		<path class="st119" d="M449.5,111.9l-8.5,5.2l-3.4-6.5l9.3-5.5L449.5,111.9z"/>
		<path class="st119" d="M491.5,439.6l-12.2,8.7l-3.4-6.5l11.9-6.9L491.5,439.6z"/>
		
			<linearGradient id="SVGID_90_" gradientUnits="userSpaceOnUse" x1="495.481" y1="445.0503" x2="511.635" y2="505.084" gradientTransform="matrix(1 0 0 -1 0 518)">
			<stop  offset="0" style="stop-color:#188DC1"/>
			<stop  offset="1" style="stop-color:#06BFE7"/>
		</linearGradient>
		<path class="st120" d="M475.3,67.5l-2.1-48h62.9l-2.6,47.9L475.3,67.5z"/>
		
			<linearGradient id="SVGID_91_" gradientUnits="userSpaceOnUse" x1="467.6685" y1="451.9772" x2="479.7148" y2="496.7436" gradientTransform="matrix(1 0 0 -1 0 518)">
			<stop  offset="0" style="stop-color:#1852A0"/>
			<stop  offset="1" style="stop-color:#067ED3"/>
		</linearGradient>
		<path class="st121" d="M473.3,19.5l-1.9,2.8l1.9,45.2h2.1L473.3,19.5z"/>
		<path class="st109" d="M494.2,29.1l-9.9-1.1l1.4,32.9l8.5-0.8v-3.4l-4.9,0.1l-0.6-25.4l5.5,0.2V29.1z"/>
		<path class="st109" d="M514.4,29.1l9.9-1.1l-1.3,32.9l-8.5-0.8v-3.4l4.9,0.1l0.6-25.4l-5.5,0.2V29.1z"/>
		
			<linearGradient id="SVGID_92_" gradientUnits="userSpaceOnUse" x1="27.7423" y1="341.6444" x2="16.7256" y2="382.5856" gradientTransform="matrix(1 0 0 -1 0 518)">
			<stop  offset="0" style="stop-color:#188DC1"/>
			<stop  offset="1" style="stop-color:#06BFE7"/>
		</linearGradient>
		<path class="st122" d="M41.5,172.7l1.4-32.7H0l1.8,32.6L41.5,172.7z"/>
		
			<linearGradient id="SVGID_93_" gradientUnits="userSpaceOnUse" x1="46.6974" y1="346.3685" x2="38.4821" y2="376.8999" gradientTransform="matrix(1 0 0 -1 0 518)">
			<stop  offset="0" style="stop-color:#1852A0"/>
			<stop  offset="1" style="stop-color:#067ED3"/>
		</linearGradient>
		<path class="st123" d="M42.9,139.9l1.3,1.9l-1.3,30.8h-1.4L42.9,139.9z"/>
		<path class="st109" d="M26.4,146.5c0,0,4.7-0.2,5.5,0.2c0.8,0.4-0.2,8-0.2,8l1.9,1.7l-1.8,1.7c0,0,0.1,7.8-1,8.4
			c-1.1,0.6-4.9,0-4.9,0v-1.9c0,0,3.1,0.2,3.6-0.2c0.5-0.4,0.5-7.2,0.5-7.2l0.8-0.9l-0.8-1c0,0,0.2-4.8,0.1-6.2
			c-0.1-0.9-3.7-0.9-3.7-0.9V146.5z"/>
		<path class="st109" d="M15.6,146.5c0,0-4.7-0.2-5.5,0.2c-0.8,0.4,0.2,8,0.2,8l-1.9,1.7l1.8,1.7c0,0-0.1,7.8,1,8.4
			c1.1,0.6,4.9,0,4.9,0v-1.9c0,0-3.1,0.2-3.6-0.2c-0.5-0.4-0.5-7.2-0.5-7.2l-0.8-0.9l0.8-1c0,0-0.2-4.8-0.1-6.2
			c0.1-0.9,3.7-0.9,3.7-0.9V146.5z"/>
		<path class="st89" d="M403.4,71.9l-10.5-27.5l27.3,5.7L403.4,71.9z M394,45.3l9.6,25.1l15.3-19.9L394,45.3z"/>
		<path class="st89" d="M487.4,448.6l-9.2,12.6l0.6,0.4L488,449L487.4,448.6z"/>
		<path class="st89" d="M392.1,345.5l-9.9-12.3l0.6-0.4l9.9,12.3L392.1,345.5z"/>
		<path class="st89" d="M86.1,432.2l-19.8-14.4l0.4-0.6l19.8,14.4L86.1,432.2z"/>
		<path class="st89" d="M83.5,414.8l-14.8,19.4l0.6,0.4l14.8-19.4L83.5,414.8z"/>
		<path class="st89" d="M41.6,214.4l-0.3,0.6l12.8,6.7l0.3-0.6L41.6,214.4z"/>
		<path class="st89" d="M546.4,49.1l-0.5-0.5l14.8-16.9l0.5,0.5L546.4,49.1z"/>
		<path class="st89" d="M258.8,89.9l-0.6,0.3l6.6,13.3l0.6-0.3L258.8,89.9z"/>
		<path class="st89" d="M170.4,313.6l-17,14.2l0.5,0.5l17-14.2L170.4,313.6z"/>
	</g>
</g>
</svg>
