<?xml version="1.0" encoding="utf-8"?>
<!-- Generator: Adobe Illustrator 24.3.0, SVG Export Plug-In . SVG Version: 6.00 Build 0)  -->
<svg version="1.1" id="Layer_1" xmlns="http://www.w3.org/2000/svg" xmlns:xlink="http://www.w3.org/1999/xlink" x="0px" y="0px"
	 viewBox="0 0 65 50" style="enable-background:new 0 0 65 50;" xml:space="preserve">
<style type="text/css">
	.st0{fill-rule:evenodd;clip-rule:evenodd;fill:url(#SVGID_1_);}
	.st1{fill-rule:evenodd;clip-rule:evenodd;fill:url(#SVGID_2_);}
	.st2{fill:#FFFFFF;}
</style>
<g>
	
		<linearGradient id="SVGID_1_" gradientUnits="userSpaceOnUse" x1="24.2145" y1="-2.4286" x2="40.3685" y2="57.6051" gradientTransform="matrix(1 0 0 -1 0 52)">
		<stop  offset="0" style="stop-color:#198DC2"/>
		<stop  offset="1" style="stop-color:#0BC0E8"/>
	</linearGradient>
	<path class="st0" d="M4.1,49L2,1h62.9l-2.6,47.9L4.1,49z"/>
	
		<linearGradient id="SVGID_2_" gradientUnits="userSpaceOnUse" x1="-3.598" y1="4.4982" x2="8.4483" y2="49.2646" gradientTransform="matrix(1 0 0 -1 0 52)">
		<stop  offset="0" style="stop-color:#1B53A0"/>
		<stop  offset="1" style="stop-color:#2B7CC1"/>
	</linearGradient>
	<path class="st1" d="M2,1L0.1,3.8L2,49h2.1L2,1z"/>
	<path class="st2" d="M22.9,10.6L13,9.5l1.4,32.9l8.5-0.8v-3.4l-4.9,0.1l-0.6-25.4l5.5,0.2V10.6z"/>
	<path class="st2" d="M43.1,10.6L53,9.5l-1.3,32.9l-8.5-0.8v-3.4l4.9,0.1l0.6-25.4l-5.5,0.2V10.6z"/>
</g>
</svg>
