<svg width="96" height="69" viewBox="0 0 96 69" fill="none" xmlns="http://www.w3.org/2000/svg">
<path opacity="0.73" d="M82.9122 67.6929H13.243C7.63237 67.6929 3.03534 63.2559 2.84975 57.6491L1.30789 11.8525C1.10802 5.97461 5.81925 1.10962 11.7012 1.10962H84.3113C90.1789 1.10962 94.8901 5.96033 94.7046 11.824L93.3055 57.6205C93.1341 63.2274 88.5228 67.6929 82.9122 67.6929Z" fill="url(#paint0_linear_43_3467)"/>
<path d="M82.912 68.0496H13.2428C7.41799 68.0496 2.69248 63.4842 2.49261 57.6633L0.95075 11.8668C0.850815 8.92781 1.92155 6.1458 3.96309 4.0343C6.00462 1.92281 8.75998 0.75293 11.7009 0.75293H84.3111C87.252 0.75293 89.9931 1.90853 92.0346 4.02002C94.0762 6.13151 95.1612 8.8993 95.0612 11.8383L93.6622 57.6348C93.4766 63.4699 88.751 68.0496 82.912 68.0496ZM11.6867 1.48053C8.94557 1.48053 6.37581 2.56481 4.46276 4.53363C2.54971 6.50245 1.55036 9.09902 1.65029 11.8525L3.19216 57.6491C3.37775 63.0847 7.78918 67.3505 13.2285 67.3505H82.8977C88.3513 67.3505 92.7627 63.0704 92.934 57.6205L94.3331 11.824C94.4188 9.08475 93.4052 6.50245 91.5064 4.53363C89.5934 2.56481 87.0379 1.48053 84.2968 1.48053H11.6867Z" fill="#953DA2"/>
<path d="M31.8162 17.5735L14.6416 37.4614L32.1303 52.299V44.6519L22.0083 35.8921L31.4022 25.2776L31.8162 17.5735Z" fill="white"/>
<path d="M62.0109 18.458L79.1855 38.3602L61.6968 53.1977V45.5364L71.8045 36.7909L60.5547 24.8781L62.0109 18.458Z" fill="white"/>
<path d="M35.5566 52.299L50.5184 19.3569H57.5567L40.6105 52.299H35.5566Z" fill="white"/>
<defs>
<linearGradient id="paint0_linear_43_3467" x1="48.0014" y1="67.6911" x2="48.0014" y2="1.11833" gradientUnits="userSpaceOnUse">
<stop stop-color="#D906E3"/>
<stop offset="1" stop-color="#FF6DF9"/>
</linearGradient>
</defs>
</svg>
