<svg width="150" height="41" viewBox="0 0 150 41" fill="none" xmlns="http://www.w3.org/2000/svg">
<path d="M30.508 7.53236C30.201 9.53066 29.9079 11.5136 29.6009 13.5119C29.1962 16.1404 28.7914 18.7536 28.4007 21.3821C28.3448 21.7664 28.2332 22.1046 27.9541 22.3966C25.7769 24.7331 23.5997 27.085 21.4505 29.4522C21.0179 29.9287 20.7946 29.9748 20.334 29.4214C18.422 27.085 16.4682 24.7792 14.5003 22.4889C14.2073 22.1507 14.1933 21.8894 14.3887 21.4897C16.6915 16.6938 18.9942 11.8979 21.2691 7.08658C21.4645 6.68692 21.6878 6.54858 22.0785 6.57932C24.6604 6.73304 27.2283 6.84064 29.8102 6.99435C30.1173 7.00972 30.6197 6.85601 30.508 7.53236Z" fill="#30B9FD"/>
<path d="M0 5.24414C6.81059 5.65912 13.5793 6.05873 20.4736 6.47371C19.9573 7.54958 19.4827 8.56398 18.9943 9.56301C17.2219 13.221 15.4494 16.8636 13.677 20.5216C13.4537 20.9826 13.3421 21.1517 12.9373 20.6752C8.76445 15.757 4.57761 10.8541 0.404728 5.95114C0.265166 5.76671 0.0418684 5.62838 0 5.24414Z" fill="#30B9FD"/>
<path d="M103.499 16.6483C104.936 15.6491 106.499 15.2802 108.16 15.4032C110.072 15.5569 111.077 16.6637 111.175 18.7696C111.258 20.6757 110.812 22.5357 110.574 24.3958C110.337 26.3172 110.016 28.2387 109.765 30.1602C109.667 30.8827 109.416 31.2516 108.69 31.2055C107.741 31.144 106.778 31.1901 105.829 31.1901C105.104 31.1901 104.964 30.9903 105.076 30.2217C105.494 27.2703 105.927 24.3035 106.346 21.3521C106.527 20.0762 106.094 19.569 104.95 19.6612C104.81 19.6766 104.671 19.6919 104.531 19.7227C103.345 19.9686 103.247 20.0916 103.066 21.3982C102.647 24.3496 102.215 27.3164 101.81 30.2678C101.726 30.8981 101.475 31.2209 100.847 31.2055C99.8281 31.1748 98.7954 31.1901 97.7766 31.2055C97.2323 31.2055 97.023 30.9596 97.1067 30.3447C97.7766 25.7024 98.4465 21.0447 99.1024 16.4023C99.1862 15.7567 99.4932 15.5415 100.051 15.5569C100.889 15.5723 101.726 15.5569 102.564 15.5569C103.443 15.5723 103.485 15.6184 103.499 16.6483Z" fill="#162231"/>
<path d="M130.448 24.8264C129.303 24.8264 128.173 24.8418 127.029 24.8111C126.596 24.7957 126.456 24.9801 126.456 25.4259C126.456 26.3175 126.819 26.8708 127.629 27.0553C128.592 27.2859 129.569 27.1322 130.546 27.086C131.355 27.0553 132.164 26.9938 132.974 26.917C133.476 26.8708 133.658 27.0553 133.546 27.624C133.407 28.3465 133.323 29.0843 133.225 29.8222C133.183 30.1911 133.002 30.437 132.681 30.5446C130.392 31.3132 128.047 31.6821 125.675 31.2056C123.121 30.6984 121.739 28.7154 121.837 25.8717C121.893 24.1654 122.13 22.4592 122.604 20.8144C123.861 16.4489 128.243 14.1432 132.15 15.7572C134.049 16.5412 135.095 18.4472 134.984 21.0297C134.942 22.0442 134.76 23.0587 134.649 24.0732C134.593 24.5959 134.314 24.8111 133.839 24.8111C132.723 24.8264 131.592 24.8264 130.448 24.8264Z" fill="#162231"/>
<path d="M60.3598 24.8273C59.2154 24.8273 58.0849 24.8427 56.9405 24.8119C56.5358 24.7966 56.4242 24.981 56.4102 25.3807C56.3823 26.2875 56.7312 26.8255 57.5406 27.0561C58.2245 27.2559 58.9223 27.1791 59.6201 27.1483C60.7366 27.1022 61.8391 27.0253 62.9556 26.9331C63.4022 26.9024 63.6115 27.0407 63.4999 27.5941C63.3743 28.2089 63.2626 28.8545 63.2208 29.4847C63.1789 30.1918 62.8719 30.4992 62.2718 30.6836C60.2621 31.2985 58.2105 31.529 56.145 31.3292C53.5631 31.0833 51.8884 29.2234 51.8326 26.3644C51.7907 23.9512 52.0698 21.5533 53.1166 19.3706C54.7773 15.9122 58.9921 14.2982 62.2718 15.8199C64.1279 16.6807 65.1328 18.6943 64.9513 21.292C64.8815 22.2142 64.7141 23.1058 64.6164 24.028C64.5606 24.5967 64.2954 24.8119 63.779 24.8119C62.6346 24.8119 61.5042 24.8273 60.3598 24.8273Z" fill="#162231"/>
<path d="M73.7442 24.8279C72.6277 24.8279 71.5112 24.8586 70.3947 24.8125C69.9062 24.7971 69.7946 25.0124 69.8086 25.4736C69.8225 26.3806 70.1714 26.8879 71.0088 27.0878C71.9717 27.303 72.9487 27.1647 73.9256 27.1186C74.735 27.0878 75.5445 27.0263 76.3539 26.9648C76.8145 26.9341 76.9959 27.0878 76.8843 27.6259C76.7726 28.1947 76.661 28.7789 76.647 29.3631C76.6191 30.2548 76.1865 30.5776 75.4607 30.7775C73.5767 31.3002 71.6787 31.5154 69.7388 31.377C66.9615 31.1618 65.2449 29.3016 65.2031 26.2423C65.1751 24.1207 65.4543 21.9992 66.2358 20.0313C67.7291 16.188 71.9857 14.2816 75.5305 15.819C77.4285 16.6338 78.4473 18.5709 78.3496 21.1229C78.3078 22.1221 78.1264 23.1061 78.0007 24.09C77.917 24.6588 77.6658 24.874 77.1634 24.8586C76.019 24.8125 74.8886 24.8279 73.7442 24.8279Z" fill="#162231"/>
<path d="M91.4407 30.131C90.0591 31.0225 88.803 31.5298 87.3656 31.4068C85.3699 31.2377 84.1557 29.7467 84.2394 27.5178C84.365 24.382 85.6629 22.7526 88.4821 22.1838C89.5148 21.9686 90.5615 21.8764 91.6082 21.984C92.5014 22.0762 92.3618 21.3999 92.4316 20.8773C92.5153 20.2931 92.3758 19.7551 91.7198 19.709C91.022 19.6629 90.3242 19.6629 89.6264 19.6783C88.7193 19.709 87.8122 19.7705 86.919 19.832C86.4863 19.8627 86.2491 19.709 86.3328 19.171C86.4584 18.3717 86.5701 17.557 86.6817 16.7423C86.7375 16.3734 86.919 16.1274 87.24 16.0352C89.5427 15.4664 91.8594 15.0668 94.204 15.6816C96.2137 16.2197 97.1906 17.6031 97.1487 19.8935C97.1208 21.7073 96.7021 23.4904 96.4788 25.2889C96.2695 26.9337 95.9904 28.5631 95.781 30.2078C95.6973 30.9149 95.4182 31.2531 94.7343 31.2224C93.897 31.1762 93.0596 31.1916 92.2223 31.2224C91.6222 31.2377 91.1756 31.1301 91.4407 30.131Z" fill="#162231"/>
<path d="M36.8303 31.2057C36.2721 31.2057 35.7139 31.2057 35.1556 31.2057C34.6672 31.2057 34.4857 30.9444 34.5695 30.4217C35.351 25.0413 36.0907 19.6455 36.928 14.2804C37.4165 11.2059 38.84 10.0068 41.6591 10.0068C42.3569 10.0068 43.0547 10.0683 43.7386 10.1759C44.1991 10.2374 44.4084 10.4834 44.3247 11.0061C44.2131 11.7439 44.1154 12.4665 44.0177 13.2043C43.9618 13.6194 43.7246 13.8346 43.3478 13.85C43.0966 13.8654 42.8314 13.85 42.5802 13.85C41.7847 13.8654 41.3102 14.4803 41.3939 15.3411C41.4219 15.6332 41.5893 15.5717 41.7428 15.5717C42.1894 15.5871 42.6221 15.5717 43.0687 15.5871C43.4734 15.6025 43.6688 15.8177 43.599 16.2789C43.4734 17.109 43.3617 17.9391 43.2361 18.7846C43.1664 19.2458 42.9152 19.3995 42.5104 19.4303C41.9522 19.4764 41.2265 19.1228 40.8636 19.6147C40.5566 20.0298 40.6403 20.7831 40.5426 21.398C40.11 24.3803 39.6913 27.3625 39.2726 30.3448C39.1889 30.9905 38.8958 31.2826 38.2818 31.2518C37.8073 31.175 37.3188 31.2057 36.8303 31.2057Z" fill="#162231"/>
<path d="M116.785 31.4543C116.255 31.4082 115.71 31.4236 115.194 31.3159C113.073 30.9008 111.747 29.3942 111.621 26.9805C111.482 24.3516 111.803 21.7534 112.849 19.3551C113.994 16.7415 115.948 15.4348 118.599 15.3886C119.674 15.3733 120.735 15.4809 121.781 15.7115C122.312 15.8345 122.549 16.0651 122.409 16.7108C122.242 17.4795 122.144 18.2636 122.074 19.063C122.019 19.6933 121.795 19.9701 121.181 19.8932C120.428 19.8009 119.646 19.7548 118.892 19.7394C117.874 19.7241 117.287 20.1084 116.966 21.1385C116.52 22.5682 116.324 24.0749 116.31 25.5969C116.297 26.673 116.771 27.0728 117.776 27.0881C118.613 27.1035 119.451 27.0728 120.274 26.9344C120.735 26.8575 120.93 27.0574 120.846 27.5801C120.707 28.441 120.581 29.302 120.483 30.1629C120.428 30.7164 120.176 30.9777 119.702 31.07C118.725 31.2544 117.776 31.4389 116.785 31.4543Z" fill="#162231"/>
<path d="M80.4571 31.2056C80.0105 31.2056 79.5779 31.2056 79.1313 31.2056C78.2241 31.2056 78.0985 31.0673 78.2381 30.0989C78.6707 27.0708 79.1034 24.0428 79.536 21.0147C79.9826 17.879 80.4431 14.7587 80.8758 11.6231C81.0153 10.6086 81.0991 10.501 82.0202 10.501C82.9553 10.501 83.8764 10.501 84.8114 10.501C85.6628 10.501 85.7325 10.6086 85.6069 11.5308C84.951 16.1267 84.2811 20.7226 83.6112 25.3186C83.3739 26.9786 83.1088 28.654 82.8994 30.3141C82.8157 30.9751 82.5226 31.2517 81.9225 31.221C81.434 31.1903 80.9456 31.2056 80.4571 31.2056Z" fill="#162231"/>
<path d="M48.9997 16.6795C49.9208 15.7572 50.9675 15.3576 52.1399 15.373C52.6283 15.373 52.8795 15.4806 52.7539 16.1261C52.5725 17.0176 52.4329 17.9398 52.3632 18.8467C52.3073 19.5076 52.0282 19.6459 51.4979 19.6152C50.7024 19.5845 49.9348 19.7074 49.1672 19.9687C48.7485 20.1071 48.581 20.353 48.5252 20.8295C48.1065 23.9343 47.632 27.0391 47.2133 30.1439C47.1017 30.9278 46.8225 31.2659 46.0829 31.2198C45.2036 31.1583 44.3244 31.2044 43.4312 31.2044C42.5101 31.2044 42.3984 31.0661 42.538 30.0978C43.0544 26.455 43.5847 22.8276 44.1011 19.1848C44.2406 18.2472 44.3942 17.325 44.4918 16.3874C44.5616 15.788 44.8408 15.5574 45.3711 15.5574C46.2782 15.5728 47.1854 15.5574 48.0926 15.5574C49.0276 15.5728 49.0555 15.5882 48.9997 16.6795Z" fill="#162231"/>
<path d="M141.654 15.5869C141.529 16.5553 141.417 17.3239 141.305 18.0924C140.733 22.1044 140.147 26.1163 139.589 30.1436C139.477 30.9122 139.198 31.2657 138.458 31.2196C137.509 31.1581 136.56 31.1889 135.597 31.2042C135.025 31.2196 134.774 30.9737 134.872 30.3281C135.332 27.223 135.779 24.118 136.225 21.013C136.253 20.8286 136.267 20.6595 136.407 20.5365C138.109 18.9379 139.812 17.3239 141.654 15.5869Z" fill="#162231"/>
<path d="M11.0527 40.4763C12.239 35.1573 13.4113 29.823 14.6255 24.3657C15.7559 25.7031 16.8026 26.933 17.8494 28.1628C18.4634 28.9007 19.0496 29.6693 19.6916 30.3611C20.0684 30.7608 20.0544 30.9913 19.6776 31.391C17.1097 34.1274 14.5557 36.9098 12.0157 39.6615C11.7366 39.969 11.4993 40.3072 11.2342 40.63C11.1644 40.5685 11.1086 40.5224 11.0527 40.4763Z" fill="#30B9FD"/>
<path d="M48.2042 0.76979C44.0035 2.06098 39.8027 3.3368 35.6019 4.62799C34.4854 4.96616 33.369 5.30433 32.2525 5.65787C31.9594 5.7501 31.7361 5.78084 31.5268 5.45804C30.5777 3.95165 29.6008 2.44526 28.6379 0.938874C28.6099 0.877389 28.596 0.800532 28.582 0.739047C29.2101 0.616076 46.6132 0.569962 48.2042 0.76979Z" fill="#30B9FD"/>
<path d="M22.1763 5.49092C23.8231 3.86043 25.3164 2.36838 26.8097 0.876329C27.0191 0.660982 27.1307 0.676364 27.2982 0.922475C28.303 2.50682 29.3218 4.09116 30.4104 5.79856C27.661 5.70627 25.0233 5.59859 22.1763 5.49092Z" fill="#30B9FD"/>
<path d="M150 15.7112C147.418 17.3724 144.85 19.0337 142.143 20.7718C142.31 19.5413 142.45 18.4492 142.603 17.3724C142.882 15.5728 142.882 15.5728 144.571 15.5728C146.357 15.5728 148.144 15.5728 149.944 15.5728C149.958 15.6189 149.986 15.665 150 15.7112Z" fill="#30B9FD"/>
<path d="M19.2038 5.24566C16.608 5.06103 14.0261 4.79947 11.4302 4.75331C10.2021 4.72254 9.60196 4.2148 9.22514 3.0147C8.98789 2.24541 8.59711 1.53765 8.19238 0.629883C11.9466 2.15309 15.5752 3.63014 19.2178 5.10719C19.2038 5.13796 19.2038 5.1995 19.2038 5.24566Z" fill="#30B9FD"/>
<path d="M128.703 21.9858C128.256 21.9858 127.824 21.9704 127.377 21.9858C126.972 22.0166 126.931 21.8627 127.028 21.4474C127.391 19.986 128.256 19.2014 129.387 19.386C130.252 19.5245 130.922 20.9859 130.503 21.8012C130.406 22.0012 130.238 21.9704 130.085 21.9704C129.638 21.9858 129.164 21.9858 128.703 21.9858Z" fill="#FCFCFC"/>
<path d="M58.6574 21.985C58.1969 21.985 57.7363 21.985 57.2618 21.985C57.0804 21.985 56.8989 22.0158 56.8989 21.6773C56.8989 20.3852 58.2108 19.1547 59.3832 19.4008C60.2205 19.57 60.8207 20.939 60.4438 21.785C60.3461 22.0004 60.1926 21.985 60.0391 21.985C59.5925 21.985 59.1319 21.985 58.6574 21.985Z" fill="#FCFCFC"/>
<path d="M72.0135 21.9857C71.6925 21.9857 71.3716 21.9857 71.0366 21.9857C70.1853 21.9857 70.1713 21.955 70.4644 21.0472C70.8273 19.9395 71.539 19.3395 72.4741 19.3703C73.5208 19.401 74.2465 20.678 73.8557 21.7549C73.758 22.0165 73.5766 21.9703 73.3952 21.9857C72.9346 21.9857 72.4741 21.9857 72.0135 21.9857Z" fill="#FCFCFC"/>
<path d="M91.1336 24.7342C92.0268 24.7188 92.0268 24.7188 91.9012 25.6883C91.8872 25.8422 91.8732 25.9961 91.8314 26.1346C91.6918 26.5501 91.9291 27.1503 91.4545 27.3811C90.8405 27.6889 90.1706 27.8428 89.4867 27.6427C89.0401 27.5196 88.8587 27.1503 88.8866 26.6578C88.9563 25.3959 89.4727 24.8265 90.6451 24.7342C90.8126 24.7342 90.98 24.7342 91.1336 24.7342Z" fill="#FDFDFD"/>
</svg>
