<svg id="SvgjsSvg1040" width="288" height="288" xmlns="http://www.w3.org/2000/svg" version="1.1" xmlns:xlink="http://www.w3.org/1999/xlink" xmlns:svgjs="http://svgjs.com/svgjs"><defs id="SvgjsDefs1041"></defs><g id="SvgjsG1042"><svg xmlns="http://www.w3.org/2000/svg" data-name="Layer 1" viewBox="0 0 24 24" width="288" height="288"><circle cx="12" cy="5" r="2" fill="none" stroke="#4285f4" stroke-linecap="round" stroke-linejoin="round" stroke-width="1.5" class="colorStrokeff5001 svgStroke"></circle><path fill="none" stroke="#4285f4" stroke-linecap="round" stroke-linejoin="round" stroke-width="1.5" d="M20,12.5v4.75a.65.65,0,0,1-.06.33.67.67,0,0,1-.34.36l-5.46,2.58a5,5,0,0,1-4.28,0L4.4,17.94a.71.71,0,0,1-.4-.69V12.5" class="colorStrokeff5001 svgStroke"></path><path fill="none" stroke="#4285f4" stroke-linecap="round" stroke-linejoin="round" stroke-width="1.5" d="M4.43,12.22l5.64-2.34a5.09,5.09,0,0,1,3.87,0l5.63,2.34a.69.69,0,0,1,.38.9.68.68,0,0,1-.35.36L14.14,16a5.08,5.08,0,0,1-4.28,0L4.4,13.48a.69.69,0,0,1-.34-.91.67.67,0,0,1,.37-.35Z" class="colorStrokeff5001 svgStroke"></path><line x1="12" x2="12" y1="7" y2="13" fill="none" stroke="#4285f4" stroke-linecap="round" stroke-linejoin="round" stroke-width="1.5" class="colorStrokeff5001 svgStroke"></line></svg></g></svg>