<?xml version="1.0" encoding="utf-8"?>
<!-- Generator: Adobe Illustrator 25.0.0, SVG Export Plug-In . SVG Version: 6.00 Build 0)  -->
<svg version="1.1" id="Layer_1" xmlns="http://www.w3.org/2000/svg" xmlns:xlink="http://www.w3.org/1999/xlink" x="0px" y="0px"
	 viewBox="0 0 125 125" style="enable-background:new 0 0 125 125;" xml:space="preserve">
<style type="text/css">
	.st0{fill:url(#SVGID_1_);}
</style>
<g>
	<linearGradient id="SVGID_1_" gradientUnits="userSpaceOnUse" x1="39.9461" y1="63.3345" x2="81.1166" y2="63.3345">
		<stop  offset="0" style="stop-color:#227FDC"/>
		<stop  offset="1" style="stop-color:#36A1E2"/>
	</linearGradient>
	<path class="st0" d="M81.1,74.9c-4,6-10.9,10-18.7,10c-12.4,0-22.5-10.1-22.5-22.5c0-9.2,5.5-17.1,13.4-20.6v33.1H81.1z"/>
	<path d="M70,19c-1.4-0.3-2.7-0.4-4.1-0.5v42.4h22.6v-4.2l-18.4,0V23.5c7.7,1.5,14.8,5.2,20.5,10.9c7.5,7.5,11.6,17.4,11.6,28
		c0,10.6-4.1,20.5-11.6,28C83,98,73,102.1,62.5,102.1c-10.6,0-20.5-4.2-28-11.6S22.8,73,22.8,62.4c0-10.6,4.1-20.5,11.6-28
		c5.3-5.3,11.8-8.9,19-10.6v13.3C43,40.8,35.6,50.8,35.6,62.4c0,14.9,12,26.9,26.9,26.9c10.3,0,19.3-5.8,23.8-14.4
		c0.7-1.3,1.3-2.7,1.8-4.1H57.5V18.7c-1.4,0.1-2.8,0.4-4.1,0.7c-20,4.2-35,21.9-35,43.1c0,24.3,19.7,44,44,44s44-19.7,44-44
		C106.5,40.7,90.7,22.6,70,19z M81.1,74.9c-4,6-10.9,10-18.7,10c-12.4,0-22.5-10.1-22.5-22.5c0-9.2,5.5-17.1,13.4-20.6v33.1H81.1z"
		/>
</g>
</svg>
